<mxfile host="app.diagrams.net" agent="Mozilla/5.0 (Macintosh; Intel Mac OS X 10_15_7) AppleWebKit/605.1.15 (KHTML, like Gecko) Version/18.3.1 Safari/605.1.15" version="28.0.7">
  <diagram name="Page-1" id="D-datX1oWtXWp2vDRGbC">
    <mxGraphModel dx="2253" dy="832" grid="1" gridSize="10" guides="1" tooltips="1" connect="1" arrows="1" fold="1" page="1" pageScale="1" pageWidth="827" pageHeight="1169" math="1" shadow="0">
      <root>
        <mxCell id="0" />
        <mxCell id="1" parent="0" />
        <mxCell id="qBwJLGhYPLfwIa4ArQ2N-1" value="" style="shape=image;verticalLabelPosition=bottom;labelBackgroundColor=default;verticalAlign=top;aspect=fixed;imageAspect=0;image=data:image/png,iVBORw0KGgoAAAANSUhEUgAABYIAAAGdCAYAAACvowdFAAABWGlDQ1BJQ0MgUHJvZmlsZQAAKJFjYGDiSCwoyGFhYGDIzSspCnJ3UoiIjFJgf8nAziAPFGRhsEhMLi5wDAjwAfIYYDQq+HaNgRFEX9YFmfV5msOilFkpm6+UnmGc0vF1EaZ6FMCVklqcDKT/ALFBckFRCQMDow6QHVBeUgBi1wDZIkVARwHZE0DsdAh7CYidBGHvAKsJCXIGss8A2QLJGYkpQPYdIFsnCUk8HYmdm1OaDHUDyPU8qXmhwSBzgFiGwZchk0EBSOYz5AFZJUC6CId6E7B6Z6CKAoZKhiKg6nSGDKAOBQZHoEgBQw5DKpDtCTQnmUGPQQfINmIwAGJTUDijhx9CLOsuA4PZDwYGZkaEWFopA8OeHgYG/g0IMdUWoFOAYXSgpiCxKBEeqozfWIrTjI0gbO7tDAys0/7//xzOwMCuycDw9/r//7+3////dxnQ/FtAvd8AXEpmdbJcmZAAAABWZVhJZk1NACoAAAAIAAGHaQAEAAAAAQAAABoAAAAAAAOShgAHAAAAEgAAAESgAgAEAAAAAQAABYKgAwAEAAAAAQAAAZ0AAAAAQVNDSUkAAABTY3JlZW5zaG90kvjGxAAAAddpVFh0WE1MOmNvbS5hZG9iZS54bXAAAAAAADx4OnhtcG1ldGEgeG1sbnM6eD0iYWRvYmU6bnM6bWV0YS8iIHg6eG1wdGs9IlhNUCBDb3JlIDYuMC4wIj4KICAgPHJkZjpSREYgeG1sbnM6cmRmPSJodHRwOi8vd3d3LnczLm9yZy8xOTk5LzAyLzIyLXJkZi1zeW50YXgtbnMjIj4KICAgICAgPHJkZjpEZXNjcmlwdGlvbiByZGY6YWJvdXQ9IiIKICAgICAgICAgICAgeG1sbnM6ZXhpZj0iaHR0cDovL25zLmFkb2JlLmNvbS9leGlmLzEuMC8iPgogICAgICAgICA8ZXhpZjpQaXhlbFlEaW1lbnNpb24+NDEzPC9leGlmOlBpeGVsWURpbWVuc2lvbj4KICAgICAgICAgPGV4aWY6UGl4ZWxYRGltZW5zaW9uPjE0MTA8L2V4aWY6UGl4ZWxYRGltZW5zaW9uPgogICAgICAgICA8ZXhpZjpVc2VyQ29tbWVudD5TY3JlZW5zaG90PC9leGlmOlVzZXJDb21tZW50PgogICAgICA8L3JkZjpEZXNjcmlwdGlvbj4KICAgPC9yZGY6UkRGPgo8L3g6eG1wbWV0YT4KBBeMUQAAQABJREFUeAHsnQd8FEUbxl8URAyooAGkaCiClAAKkRaKdCkiEgmEXqVJtdAJXekd6XyUhFBEepcWihRFQhEFiVJEooDSFeXbZ3CPy+Xucj13l2fyg9vbnfrf3bndZ955J80DLQgDCZAACZAACZAACZAACZAACZAACZAACZAACZAACZCA3xJ4zG9bxoaRAAmQAAmQAAmQAAmQAAmQAAmQAAmQAAmQAAmQAAkoAhSCeSGQAAmQAAmQAAmQAAmQAAmQAAmQAAmQAAmQAAmQgJ8ToBDs5yeYzSMBEiABEiABEiABEiABEiABEiABEiABEiABEiABCsG8BkiABEiABEiABEiABEiABEiABEiABEiABEiABEjAzwlQCPbzE8zmkQAJkAAJkAAJkAAJkAAJkAAJkAAJkAAJkAAJkACFYF4DJEACJEACJEACJEACJEACJEACJEACJEACJEACJODnBCgE+/kJZvNIgARIgARIgARIgARIgARIgARIgARIgARIgARIIC0RkAAJkAAJkAAJkAAJkAAJkAAJkAAJkAAJkAAJpD4CCQkJcuvWLZsanitXLkmbllKiTbC8NBLPnpeeGFaLBEiABEiABEiABEiABEiABEiABEiABEiABJwhAJEXYu/efXvl9JnTcuq7U3LyxEk5eeykyrZgsYJSoEgB+Uv7sxQef/C4PJ7mcVkbvdYQpWGThoL9derVkeeffV4KFy4sQUFBhuPc8E4CaR5owTurxlqRAAmQAAmQAAmQAAmQAAmQAAmQAAmQAAmQAAnYQuD+/fty4cIFid0XK6vXrZYV0SskMFuglHyjpASXD5aceXNK3sJ5JUNABskcmNmWLM3GQTlXLlyR2zduy5m4M3L8q+Py84mfZd/2fVK4WGFp2LChlClVRkJCQiQwMNBsHtyZMgQoBKcMd5ZKAiRAAiRAAiRAAiRAAiRAAiRAAiRAAiRAAk4RgLXvwUMHZcHiBUr4LVu1rIS+HSolK5VUwi9EX0+GawnX5MShE3Jg8wH5Zsc3cu3KNXmv83tSs2pNKV26NF1LePJkmCmLQrAZKNxFAiRAAiRAAiRAAiRAAiRAAiRAAiRAAiRAAt5IAOJvdEy0zJo1S35N+FUadmooIVVDpGjpol4ntOrC8KZFm2TT0k3SuVtniWgUQVE4hS4sCsEpBJ7FkgAJkAAJkAAJkAAJkAAJkAAJkAAJkAAJkIAtBOCOYfOWzTJuwjiJOx6nxN83Grwh+YPz25LcK+KgDXAj8eWyLyVqcpQMHDJQ2rRoQ9/CHjw7FII9CJtFkQAJkAAJkAAJkAAJkAAJkAAJkAAJkAAJkICtBGD9O2XGFBk2eJg07tZYqjWqJiXKl7A1udfGu3PrjuxavUsWfrpQ0j1IJ59+8qnUrFHT6yyavRaggxWjEOwgOCYjARIgARIgARIgARIgARIgARIgARIgARIgAXcQiI+Plw/7fSi7vtwlrQa0krdav6UWeXNHWSmdJxacWzBygXy942vpP6C/tG3dVgICAlK6Wn5Z/mN+2So2igRIgARIgARIgARIgARIgARIgARIgARIgAR8jAAE4Hcj3pWa9WtKibolZO2FtRLeNdxvRWCcHri3GB49XJbELZGTV09KxowZZcjQIQJXEgyuJUAh2LU8mRsJkAAJkAAJkAAJkAAJkAAJkAAJkAAJkAAJ2EUALiAaRTSSkLIhSgBeeGSh1IqolapcJWQOzCztB7WXPTf3yC/aX85cOWVx1GIKwnZdSdYjUwi2zodHSYAESIAESIAESIAESIAESIAESIAESIAESMAtBGD1Gjk0UooEF5HidYvLuvPrUp0AbAo2Q0AGJQivPLtSFq9brATh2L2xptH43QEC9BHsADQmIQESIAESIAESIAESIAESIAESIAESIAESIAFnCKzfsF7atGkjDTo3kGa9m/m1+wdnOF2KvyS93+otubLlkpioGAkMDHQmu1SdNm2qbj0bTwIkQAIkQAIkQAIkQAIkQAIkQAIkQAIkQAIeJHDr1i1p3b61HD1+VOYcmCM5gnJ4sHTfKwp8oo9Fy6aoTZI1a1ZZtGSRNIto5nsN8YIap0qLYPhdwU138uRJuXb9mvyj/SEc/OqgJFxJMJyWgoUKSv78+SWN9ve49vfSSy9Jzpw51cgDVy80YOIGCZAACZAACZAACZAACZAACZAACZAACZCADQRgBVy3Tl0ZvmS4VGtULVX5ALYBT7JRriVck3HdxsmdhDuyPHo5rYOTJZY4gl8LwfCzcurUKfk27ltZs26NnDhxQk4eOykFixWUPIXzyEuFXpLc+XMbiGR/KbtkzZnV8P3YvmOGbWzsWbdHHn/wuGxYukHtb9ikoRR+pbCULlVaXg95nRdfIlr8QgIkQAIkQAIkQAIkQAIkQAIkQAIkQAIkAALQqJo2byrfnPhGpm+fLlgYjcFxArAOHtB0gKxbv07q1K7jeEapLKXfCcHx8fESuy9W5s2fJzu27ZDS1UpLxfoVpeCrBeWlAi+57EbDDXzlwhX58eSPcurwKdm5Yqdcu3JNwsLDpE7NOlKpUiWh1XAqu5vYXBIgARIgARIgARIgARIgARIgARIgARIwIQCtqnSZ0soXcOt+rWkFbMLH0a+wDu5ctbPUrFxTJoyfQK42gPQLITguLk6Wr1ouwwYPk7JVy0ro26FSslJJCSoU5NGLABfgiUMn5MDmA7I9ZrvyW9KnTx9pUL8BRWEbLkZGIQESIAESIAESIAESIAESIAESIAESIAF/IqC7gpgTO0dKlC/hT03zirbAUHNi74nyy4lf6CrChjPis0Iw/PxGx0TLzNkz5b721+LjFlKpfiWvWmHxTNwZ2bFqh8wcPFPCmoRJ9y7dpUzpMh4Vp224BhiFBEiABEiABEiABEiABEiABEiABEiABEjAxQQih0ZK9MpombZtmstmqLu4in6THVxFTO41WbZt3SbBwcF+0y5XN8TnhGCY03/Y70PZuWOnNOzUUMI6hXn9zYTRieNfHZcVU1fI1zu+lnHjx9FK2NVXMvMjARIgARIgARIgARIgARIgARIgARIgAS8gAB2oxps15Lb2N2njJBoEeuicHN17VPqE9ZFVK1ZJaPlQD5XqW8X4jBAM9w9DRw2VYyeOKetfX11Z8c6tO7J43GJlJRw5JFI+6P0B3Ub41j3D2pIACZAACZAACZAACZAACZAACZAACZCAWQK6CFygQgGhP2CziNy6E25bmxRrIl06dZHIQZFuLcsXM3/M2ysNATi4WLCENQuTWl1qSdS3UVIropbPjqZkCMgg7Qe1lz0398gv2l/GjBll0NBBcuvWLW8/FawfCZAACZAACZAACZAACZAACZAACZAACZCABQJwYwpLYIjA0H7Spk1rISZ3u4tA5sDMEn0sWjbt2SRwzcGQmIDXCsEQRsObhEuVGlWkx4weSgD2J6faxoLwFbkiefPlFTgQZyABEiABEiABEiABEiABEiABEiABEiABEvAtAhCBiwYXNYjAvlV7/6otxGC45KAYnPS8eqVriMVRi6VXr17SakAradixYaoYQbkUf0lGtB8hTz54UhbMWSBBQUFJzxb3kAAJkAAJkAAJkAAJkAAJkAAJkAAJkAAJeBUBXQRuOaClhHcN96q6pebKwE1H9ze7S60Ktegm4r8LwauEYCwEV/etupK7SG7pPbm31y8C546bKXZDrIxoM0L6D+gvXTp2SRUiuDs4Mk8SIAESIAESIAESIAESIAESIAESIAEScDcBiI2vvvaqlA8rr9xBuLs85m8fAYrBiXl5jRC8JGqJ9OzVU/rP6y+htVP3yn64SAe3GCx3r9yV5dHLJTAwMPFZ4zcSIAESIAESIAESIAESIAESIAESIAESIIEUJQD9xtgncIpWhoVbJIDz1Py15tK1Q1fp1rWbxXip4UCKC8E4GU2bN5WffvtJhkcNT5VWwJYutE1Rm2RSr0kyf958qVO7jqVo3E8CJEACJEACJEACJEACJEACJEACJEACJOBhAlWqV6FPYA8zd7S4awnXpEmxJrJqxSoJLZ96DVBTdLE4uILImSunZC700IkznDkzPCJQK6KWzD0wV3r17SXvd3tfIJozkAAJkAAJkAAJkAAJkAAJkAAJkAAJkAAJpCyByKGRclv7a92vdcpWhKXbRACaY/SxaKkQWkGgR6bWkGJCcOzeWMmTJ4+MXDlS+VBJmzZtaj0HVtudIyiHLDyyUH5L85uabkAx2CouHiQBEiABEiABEiABEiABEiABEiABEiABtxKAe9OoFVEyaeMkru3kVtKuzRxi8JzYOVK6TGm5deuWazP3kdxSxDUEROAGYQ2UEk8rYNuvlNlDZ8v3e76XmKgY+g22HRtjkgAJkAAJkAAJkAAJkAAJkAAJkAAJkIBLCMCaNKRsCDUtl9BMmUxipsbI4dWHZcvGLalOyPe4RfDkqZMpAjt4nbcf1F5K1S8lRYOLSkJCgoO5MBkJkAAJkAAJkAAJkAAJkAAJkAAJkAAJkIC9BGBFCmvST1Z8wjWu7IXnRfHDu4ZL+ufTy/CRw72oVp6pikctguE/ZdOeTVwUzslze3TvUenXsJ8cjztOy2AnWTI5CZAACZAACZAACZAACZAACZAACZAACdhCoFFEIwkqFyQQEhl8mwBcr9bNXTfVLR7nMYtgXQSG/xS6g3DuZilRvoTyrUzLYOc4MjUJkAAJkAAJkAAJkAAJkAAJkAAJkAAJ2EIAfoF/TvhZGnZsaEt0xvFyAlirbN7+edKwYcNU5S/YIxbBuFmGfDJEFn29KNX53nDndU/LYHfSZd4kQAIkQAIkQAIkQAIkQAIkQAIkQAIkIMo9Z9asWWXrla00bvSzCwL+guP3xcuyqGV+1jLzzXG7RTAWhuvRu4dM3z6dIrD5c+DwXlgGdxvfTd6o+obApJ2BBEiABEiABEiABEiABEiABEiABEiABEjAtQTCI8Jl+JLhFIFdi9UrcoObj6PHj8r6Deu9oj7uroRbhWCIwA3CGnAlRTeexVoRtSQ0LFRqvFmDYrAbOTNrEiABEiABEiABEiABEiABEiABEiCB1EcAs9xva3/QXxj8k8C4NeOkTZs2qcJFhNtcQyQkJEiR4CIyZesUyR+c3z+vFC9q1eyhs+XaqWsSEx3jRbViVUiABEiABEiABEiABEiABEiABEiABEjANwncunVL8uTLI1FxUbQG9s1TaHOt4SLip70/+b2u5hYhGG4KqtWqJtXbVOeIic2XnHMRwbz5a81lwicTpE7tOs5lxtQkQAIkQAIkQAIkQAIkQAIkQAIkQAIkkMoJdO3eVZ56+SmB+wAG/yYAXa1u7rpyaP8hCQoK8tvGukUIjhwaKQe+OyAjokb4LThvbNi1hGtSPWt1uXLligQGBnpjFVknEiABEiABEiABEiABEiABEiABEiABEvB6AvHx8RJSNkTWnV/HNa+8/my5poJH9x6VCZ0myPFjx12ToRfm4nIfwfALPG3GNBmycIgXNte/q5Q5MLNMXD9RKlerTH/B/n2q2ToSIAESIAESIAESIAESIAESIAESIAE3EmjTvo0MmDuAIrAbGXtb1iXKl5CM2TIKtE1/DS4VguE75Z2G78i8/fN4o6TQFRNaO1SKVS4mPXr3SKEasFgSIAESIAESIAESIAESIAESIAESIAES8F0Ce/fulYtXLgo0FobURaD/7P7yXuf3/NbA0qVCcOv2raX7+O6SIyhH6rpKvKy1Pcb1kJhlMRIXF+dlNWN1SIAESIAESIAESIAESIAESIAESIAESMC7CXTs1FE+mv6Rd1eStXMLAWiaLxZ+UelqbikghTN1mRAMs+lvT3wr1RpVS+Emsfi0adPK1C1TpXGzxn47gsGzTAIkQAIkQAIkQAIkQAIkQAIkQAIkQAKuJgBr4HvaH9wEMKROAp1HdZZevXr5pabmEiEYK+s1bNhQhi4eSpcQXnKP5A/Or0Ywli5b6iU1YjVIgARIgARIgARIgARIgARIgARIgARIwLsJDIwcKB/P+Ni7K8nauZUArIJfe+M1OfDVAbeWkxKZu0QInv7ZdHm1yqsC8ZHBewj0n9NfmjdtLgkJCd5TKdaEBEiABEiABEiABEiABEiABEiABEiABLyQQHx8vPINTGtgLzw5Hq5SWNcw5SvYw8W6vbg0D7TgTClYIC5Pvjzy+dnPJUNABmeyYlo3ENgUtUm+XfetLIta5obcmSUJkAAJkAAJkAAJkAAJkAAJkAAJkAAJ+AeBRhGNpHjd4lIropZ/NIitcIpARPEImTd9npQvX96pfLwpsdNC8KChgyR9/vS8SbzprBrVBW476uauK4f2H5KgoCCjI9wkARIgARIgARIgARIgARIgARIgARIgARIAARg6ZsyYUQ78fYBuT3lJKAKxG2Jl7+K9fmVc6ZQQzJvEN+4MWAUfW3tMYqJjfKPCrCUJkAAJkAAJkAAJkAAJkAAJkAAJkAAJeJDA5KmT5eTVk9J+UHsPlsqivJkAjCvLpCsjN2/elICAAG+uqs11c8pH8KfjPpX3hrzHkRKbcadMxGqNqsmOHTsEvm4YSIAESIAESIAESIAESIAESIAESIAESIAEEhOYOXum1GlRJ/FOfkvVBNKmTat0z1WrV/kNB4ctgnVr4D0399A3sA9cDrAKvnfmngwdNNQHassqkgAJkAAJkAAJkAAJkAAJkAAJkAAJkIBnCMTFxUlYszCJ+jbKMwWyFJ8hcCn+kvR9q68cP3bcZ+psraJprR20dmzsuLFKFecCcdYoec8xWAXXy1VPPu79sd+Ys3sL3TRp0nhLVVgPEnA7ASfXF3V7/by9APYX3n6GWD8S8F8C7L+dO7fsv53jx9S+RYD9hW+dL9bWNQRWrlop9dvXd01mzMWvCOQIyiH3tb+EhAQJDAz0+bY5bBGcLXs2WXl2Ja2BfegSmD10thTOUli6de3mQ7X2/qrixeDixQfeX1HWkAScJJAzZxrhi4FzENlfOMePqUmABBwjwP7bMW7Gqdh/G9Pgtj8TYH/hz2eXbbNGgBqXNTo8FjM1RnJpf/6gpznkI3jv3r2SJzgPRWAfuxfCOoUJfN4wkAAJkAAJkAAJkAAJkAAJkAAJkAAJkAAJiMAtRL6i+ahx8WKwSKBGeA2/0dMcEoKjlkVJk55NLALiAe8kkDkwszJnRyfHQAIkQAIkQAIkQAIkQAIkQAIkQAIkQAKpncCXu76U0LdDUzsGtt8KAehpV65cUe4hrETziUN2C8H379+X6ZOnS5kaZXyigaxkYgItPm4hy1ctT7yT30iABEiABEiABEiABEiABEiABEiABEggFRKYPWu2VKhbIRW2nE22h0DDTg3l4KGD9iTxyrh2C8Gbt2yWxt0aS9q0Dq8z55UgUkulKtWvJDOnzxQI+gwkQAIkQAIkQAIkQAIkQAIkQAIkQAIkkFoJ3Lp1S1l6YkEwBhKwRiCkaogsWLzAWhSfOGa3EIxGV2tUzScax0omJZAhIIPy73zq1KmkB7mHBEiABEiABEiABEiABEiABEiABEiABFIJgaNHj0rV8KqppLVspjMEipYuKiuiVziThVektVsIRqPReAbfJVCvdT1ZuWql7zaANScBEiABEiABEiABEiABEiABEiABEiABJwls3r5ZytSk61MnMaaK5PCMUDC4oMTHx/t0e+0SgtHYslXL0i2ET59ykWLlismKFb4/iuHjp4HVJwESIAESIAESIAESIAESIAESIAESSEECK1eulLyF86ZgDVi0LxGoHFZZTpw84UtVTlJXu4TgNevWcCXFJAh9bwd835yIOyHwhcNAAiRAAiRAAiRAAiRAAiRAAiRAAiRAAqmNANZOOnnspNA/cGo78463F36CN27e6HgGXpDSLiH4i9VfSMlKJb2g2qyCswRqNqkp8IXDQAIkQAIkQAIkQAIkQAIkQAIkQAIkQAKpjcCFCxekduPaqa3ZbK8TBLLmzCrHTx53IoeUT2qzEIyRkh3bdkhQoaCUrzVr4DSBN5u9KfCFw0ACJEACJEACJEACJEACJEACJEACJEACqY3AyZMnJXeh3Kmt2WyvEwRgPb5r2y4nckj5pDYLwRgpoX/glD9hrqoBfODs3rPbVdkxHxIgARIgARIgARJwG4ETJ76VXr3aSMuW9eTq1d/dVg4zJgESIAESIAESSD0EDhw+ILnzUwhOPWfcNS0tV7WcTy8YZ7MQjJGSYhWLuYYac0lxAv4wipHiEFkBEiABEiABEiABjxAoUqS4VK5cSw4ejJVnn83skTJZCAn4A4E//rguZ86clj///CNJc27ftm29kO+/Pynnzp1Jkp47SIAESMDXCZz67pQUK0edy9fPo6frnylrJrlx44ani3VZeTYLwRwpcRlzr8moYLGCkpCQ4DX1YUVIgARIgARIgARIwBKB48e/kTJlKsljj9n8+GopK+4nAb8mcPPmDRk3bohUqlRYWreuL3PnTpJBg7pLu3YN5fPPl6i237lzR1q0qGuVA0Tk3r3byT///CNnz56WihVfkStXLptNc+PGny6x1r97966MHTtYHjx4YLYcX9r5++8JMnPmeF+qMutKAqmOwMkTJyVDQIZU12422DkCFepWkGNxx5zLJAVTp7W1bIyUtGjRwtbo8uPJH2Xm4JmG+I89/pi0H9Re4JLANKyZv0YO7zgsiIPw7z//SpHXi0h413DTqG79fuP6DUmbLq3NHUHCpQR59vlnJd0T6Wyu15huY+TUkVNy/bfrUuWdKtJ1VFeb05qL+Nvl3yRL1iwOvRQFFQmSW7duSWBgoLmsuS8FCOzevU127XLMd3ObNt0kZ87c2oN/pOzZs117GP9NXnuttEycuCAFWpKyRbZvHya//HJBrl37Xdq37ymtWnVOVCG8rPz999+SJctzifbzCwl4A4FFi2ZqU43st7xKmzad9O070huakGwd2rRpoIkJv6h+qlOnD6V58/eSTeOOCNHRc2XFikWqHs89F6ht73CqGPQtjz/+uDz1VIBT+TCxeQL79u2Q+vUbmz/IvSRAAopAbOyX0rlzE3n99VCJjt4iOXLkMpD5999/Zd68KZoo3EPSpUuX7G/NxYs/y/79O7VnyzmSL19B+e23K/Ldd3GSNWt2Q57Y+Ouvv5RIDKvjgwfjBf2pIwH16969hXTt2kfSpEljNouNG1fJ9etX1bHHH08r77zTVNKmTf6VdseOTXL58sX/8kwjb73VSAICMpotw5adp0+fkJUrF8vNm38K1tJ59tks0rFjb8mU6RmZPXuCdg4+Uhxy5w6SMWMGyYcfDrUlW8YhARLwMIGTx05K5kDbZxp9/O7HiWpYo3ENqdqwaqJ9+HL8q+OydMpSpS/h+4N/H0iGjBmkz7Q++OqxgP7pz6t/Ks3IlkJv/nlT7v+t9WnPPWtLdIfj/PT9TzLm/TFKF4M2NnH9RMlfNL/D+aVEwoSrvmtUmfyv5n9E7R0pCXolSCIXRKoT26FyB/kl/hc5/8N5WfDVgiQ/1jXCa0j+4Pwy+v3Rcu/OPek7o6/67umT+dmgz2T/5v0yaf2kZP3EnD56WpqVbCaFShaShQcX2lzV9z95X777+jtpV6Gd3L552+Z05iJuXrpZhrQeIlM2TZGSlUqai2J1H6ZA7Nu3T4KCgqzG40HPEdi5c5PMnz9Vs9joIVWqvKkeKvFwe/jwPvngg3baA2smiYraLM8886zcu3dPCSkQMjZsWKlZfdRQQnCXLn3kzTffkXr1ykj+/K94rvJeVNKkSf+TzZtXay8STeXu3TuJauaql5VEmbrhy5EjB+T770/8l3MaeeONWpI9e45kS4IfzWPHDhviwXouTx7f+lE1VD6VbixZMlu9rHbv3l+KFSslGTNmUiTw8r548Ux59dXS2kvlbCU44vr+8ccfZMaM0QJryd69I+WJJ57wenKTJy+UdetWaPVto/Vldx2qL0RXDPa8+GIeQ/rr16/Z5TagYcPmUr58FXn33SoWRQdD5slsnDoVpw2Y15HGjdtq7RqcTOzkD8MCb+nSeXLy5DHNGu++SlC5ck2pVett2b59gybEvCDBwa8mn5EHYrirv8K0dYhauEYqVKim9W1H5JNPPvNAi1xbxObNa+TUqWNqwKF27Xc0q+aKri2AuZHAfwS2bFmrDYA3lIiIdjJq1PQkXGBN365dd+23ZJZ8/PF78sILj0TiJJG1HYUL413hjDo0evQAadu2m7oXTeNiAAwCKIRciLOOhgkThkloaFWtb3vNYhbZsuXQpuP+KSNGfKwJ079qdSwuRYuWsBgfB/bv36V8jOM3Y/ToWQJx9sknHbcAnD59jPzww0kZOHCMZlTwvCo7Pv6s9r27GgjU9+EA7nmUv3XrOqleva6Ky/9IgAS8g4Ayistm38DVkP8NUTrOsHbD5MCWA0o/KhJSRLK/mHiA7JWSr0i7ge1k8djFsm3FNhk8b7AUL1/c4w3fvWa3DG45WEbFjJLQ2qFWy//7r78l7JUwufnHTVkbv9YugdxqxmYOwi/ziOgRMrXvVFk1a5UyBjUTzWt3QUtb1G+R9Ojaw2vraK1iD01wrcX475i9IyV40ICJ/QsvvSChdUKl8tuVlQC6aMyiJKU9+dSTUrhUYWnVp5U07dVUipUtJk9lfCpJPHfvgHUu6to2tK0c3XvUanFoW/on00umZx++oFuNbHQQbS0RWkLw6UyYO2KujO0+VgbNHeSQCIyyn8nyjNzX/hi8hwCseCHw9O//iZQtW0kKFQqWl18upIm8NVUln38+q5QqVVbtw0MvxOLZs1doIkZLwfQzhCef1O4n7cEdIoGj4dChfZqYHCJ4IIdw6ksBQsF33x1XLySo94ULP8nXX3+lWY9cU83QX1Ygrll6WYEAM3v2RO2BvYTASjslAixLcA4xMPDBB21l7dplyVYD10+PHi3VoAFeSHLmfEkyZ6bVc7LgvCwCLJ3Wrt2vTeftKiVLlpGCBYuof7DuQihYsKjqGwoUKKwJxSXl7bcby8aNhzVBNK8SmrysOWarg/sPwp6jAfd02bL5pFy5/Fo/GKyJg/3V9NtWrd6SO3dsH2SFaA4hGSydCV9+uVHrh99QfTEs2ZwNuH/btHlbCQwjRkzR2jdDiTrw0Yl+uXv3lpp1XgFni3FZenf0VxjUioioJdmyvaD97pWTnj1bq0ER/L75WoBFJqwbMT3/3LkffK36rK+PEEC/8f77zbTB35dl+PApVmvdrFkHbYD5TatxjA+i73nppXxqsNGcpS6erb78Mk6zBv7JrsE44zIwqLl+/QpB3awFzHZ75ZWiWn/7cKbqzz//aC26ZhBwV06cOKoMAzCQ1qhRS/WMjTo7EmJiFqgB9wkT5htEYOQTFJRP/W5HRc1W+Rvn3bPnIO2cfKT9PiU2TjCOw20SIAHPE4CbzDJVythVMHQczMiGzgUjv9s3bsvwDsOT5AFjrqCCQdJjbA95o8Eb6h/SeTqg7F7je8ngFoNl+fTlVovHDP2Mz2SUpzI9JY+ndayPtFqA0UHohdCjoI05GuJPx0vHKh3l066fCiyZPR3+lX89XaTLyrNZCHamRDww9JneRzJlziSzhsySc6fOmc0O4m9K+mdB2bhJJqydIBN6TRBY3FoKL778omy9slWmbZlmKYrV/WkeMz/dyWoi7SBGaSJbRcpPp3+S5SeXSy3tJcnRACvs9WvXO5qc6dxA4K+/7mmWvI2S5Kw/dOufphGaNGmrpusZ70fnam+AL7g+fTrJ+PFD1BQ2WGE1bFhJLc5jb14pFR/T9KKi5siqVVGqCt9885X6DkEYIbmXlbi4ryUs7A25ePFnZekxf/4U6dathUFoV5l44D+IPLACrlKltibuPyU//WT9RQdVWr58oSaa5NDcvWTXLH2Ga9M0qzn8QuaBJrIICwSKFCmhrJVMD+v3v/5pfBz3e6NGrZL0A8ZxvG3bkT5KbwPu7/Xrv9Jexn9V7l9w38bGbtfE4GWSIYP9A8nO1GXBgukyadJw7f7bIR99NEzSp0+vV9OhTwjZHTqEaX3wMG1AroEhD5z3Tp0+UP0xrPy9yf2Eq/urq1d/1yyrq2vT18dK8eKlNKvFnNrA1os+6x8Y1o0dOvQ0nEtukIA7CIwa1Ve5KcDMEFtEzvDw1jZXA+623nor3BAf/nvhfgL+g/UA0cOZ/m/OnInSsmVnm2Zn7N+/S/T6//yz+fdKvV7Lli1QVsN//nldWRvr+x35xHPygAHvS2TkBLPJYayRMePTEhJSPtFxuCIrV66yLFjg2Htjosz4hQRIwKUE/hLHjZ4ad2usFpo7sPmAwN2puQB3ECmpceH5sUH7BhITFyOHvjwk43uNV7M3zNUVvx1L45bKup/WydOZnzYXxeX7HHkGhyY2e+hsGdpmqLzb5V3JmSenEoS3r9zu8vpZyhDn9NSJU5YOe/1+m5Si+Ph4KVe1nFONef6F56X3hN7y972/ZUibIRYvPqcKsSPx5fOXBS4rPp/1eZJUMO2fu3eucmfxw7Ef1GIF/Zr0k8jWkYnipsQN/cWcL5T4O3ThUKf9tmCk5980vjuKkehk+MkXWG868hCNaXG6RbCjKOBqAi8ReLCOjt6srI379BmhTR/cqKbm7tq1xdGsPZpuyJAJ2iIjs7WH9PGqXAjr+G48bdDSy8rhw/s1y8pVMmfOSpW+YsXqmkXuas3n2wfK97K5Fbfd2ThM9YeA8NJLeeX8eesvOpg+DYvRI0f2ay8bbzjkN9ydbWHethGA5RKsihwJ6Aeu+rCvKnvaPGzYJHVfYPptkyZtZMmSjbJo0XplPXrx4nltAKuymvpsT56OxD1wYLfmG/JvbeBpj7LSdiQP0zSTJo3QxM+QRH2WcZwKFaoqQdR4nzdsu7K/gq/7vHkLKD/3etvg8gZCiq+Gxx5zr2WNr3JhvV1DAP0e3O088UR69fxmS65wKWZpZpRpetx7cEumh2vXrsqaNcs09zVzteeTeH23w59YtwEuvXQr3+QywjMvZsxBdLVmEYwZYrlyvSQYLEQoW7ay+nT0v4MHY9XMBGuuusDVnO/hxo3baM/XcxwtmulIgATcQODGjRtO5QoREzO0n3jyCSWwYg2plAwYpINuBbcVpgF63OgVo+W1iq/JZu1dH2HR2EXSsWpH+f3X3w3R8Z78RPonDN+9cWPGwBlqTbF5e+cp/8zNejeTubFz5eqv2qzKBWs9UmX4lYbXBF8NNgnBaNyzgY9+/B1tbN2WdaVsrbJy/MBxiZ4U7Wg2Lkl36vAp+XrX1zJv5Dyz+eEGgKuKl4u9LH9c/UO2Ltsq6xaskysXr5iN76md73Z+V8rUsG/6grW6PZAH1g7zmEage/fumkVplFoIwt1Annsuq0NFZMr0tHr4dyjxf4kgQGP68auvvp4oGzz49+o1SPkgTnTAD7/AkgMWfaaLnGAq8siR0+Tpp5/xaKth8QJfkhCCrVkEY6ohfNWh34LFiy+LJR4F7IbC0F/s3bvX4Zxx/iCAORLg8xA+VVN7gGB44MAumTx5pNtR4P6Ev01HrBksVW7nzs3KCtbS8cyZn08y7dhSXE/ud2V/tWfP1kRiFq7ro0cPOS3ieJIHy/ItAlhMx9n+OyVbvG3bOq34B4IZJeZESHN1wzMNXBAZBwidgwf31NZYaKa5aKhtfEhmzZqgZo1hQd6VKxfJZ5/FaLNX8mizMAI0f719lA/eli3ryZkzpxOls+UL+j1Y/dsy0wHuu3SLZ2vPRxBEkC/cqO3fv1O523LWpc5PP51VM2+sGV/Urfuu2SYXLfqqtpDxRc2fv3X3g2YTcycJkIBDBOADGH07DBvNhbi4OKlQt4K5Qzbvw9pYHSI7yM3rN2VkR/c/e1qrmK5brZ67Wi7FXzIbFS5b32z60DXQes2I4vCXh+XgtoNm43rrzm6fdpNytRIbqsJtK7Syeq3qeWu1vapeaW2tzT9p/rE1qtV4/Wf1l0ZFGsn0/tOlYr2KyS7Kpmd24/oNiZkSI3dv3xVsl6xcUl6t8Kps1KyAYJm7b9M+Gb96vOBiPnHwhFxLuKb8tnQf3V1lcevGLZk3Yp5avA7HcJG06ttKfv7+Z70I9Yl8IBCnTZdW7t29p0zim/RoIhPWTFCOrLPmzCrff/u9rPvfOlUGfMKM+2Jcojwc+aK3D+XiwQUrNTbs2FD5VT515JTBRwv2V3mniuQtnFcVA8fjaAP8ueBYWMcwefZ550V7R9rgr2nGjRunPejm1qa/9dasQsdp068bJVnw0FVth+DqaLCWdv36lZqQeFY9gGLaNKaowt+wuYBVlfEiAFERi34gfps27yd6OIcLArhcwOrRmP7Wvn0PZUmL6XlwwZBcGXgwxzRuvHilTZtO5Y8yb9z4Q/Pne0BbDKmB1Kz5lrnqmd0HkXTNmhhtSuQNbUG1nGqF7NdeSzpgAoveKVNGadbTV5QF9cCBY7UF9QomyhP3HxbrOq9ZuGAhEdQJbdSnaMNyGtZqeAmA9WWHDr1UmVjU6e+/tclFmk/l8uXfMMRPlLmdX8AXojR8v+7evVX1DZjeYxpiYuYrS+5Fi2aqQ85avJjmz++2Exg5cqR2TeXXXjizyvTp07VrIfH00ORywkrsTZu2Ty6a2eMYsND9p+JFHNcFVoXHfQErsW7d+lkczMB0V0xZhXWr+g3S7k1YNZUtW8lsWcntvHXrphIN/vjjmoqKewMvx5byw32FewhCOPoQrE6Pfgf9kB7Q7xw9elDde7DwGjBgtDqE9sGKFj6ycU9ianHXrn21RfS+15M69DlnziTDYpOwVgMPCCdr1y5XXHEvQpCA8FK16kPB5NtvDwv6UHBH/4lZBXBtYE9AXw0rNksBPnN1f9GW4qTEflf1V7j+4OvUmJtuhQe/+RCcLV1Hnmj3w9+tR9elJ8pkGe4ngL5mwIABmt91rLHgWP/t/lpaLkFfXBauoewJHTv2ThQdfoDRb/Xv31UuXTqf6BhmG+H6X7ToM23w+ZQSWP/3v7WqX8QiaJ99Nk4gSMM1hb0Bix6XLFnWpmSYfQBRFQH1/e67OLPpPv98ieZDv4nqi7/6ao9dPpHNZqjtRLn//vuPJqDX19yHjVV+/E0HAt96q5HZ5BCv4ff/0KFYizM+zCbkThIgAYcJBAQEaAP27TTf6Xm0GWRNNMOekRIUFORwfpYSNv+guWxbvk32rN0jm6I3Sa0mtrnvxHMkRNsLZy/InVt3lIuD+m3rK00Lwubutbvlw8kfypULVwRuD6Bj/Xn1T5m8YbKhKksmLFF6EI7B3y4WhZv80WQJzBFoiPPjyR9lU9QmZbgAzQjPqI26NpIRUSNkQNMBElw2WC0QN3/UfLl65aoqB76N4ePYlrBu4To5/tVxuXblmloQL6JHhOxYtUMunrsol3+6rNbHiugZoXwrW8vvt8u/yfqF6+XenXvKABOL20G4NhewUN+BrQfkyQxPKovmAsULyDvvvWMYKEQaGHHCABX1QruGLR6mXK2CxZ2bd+TXC7+qBfQslWGuXH/Z5/En2ey5s0v3Md1lVMdRymR95o6ZyfqCuvzzZWlVppVytA2fuH/d+0t6v91bZkXOUj5McKEc26+tqn3/Hylauqg6N8PaDlNisX6icCNhtGfFZysEKyciDVZthDCNgBti9Puj1YWBffrLJ4ThVqVbyUsFX5Juo7upuBCDy71ZTsa8P8ZlFsJwOn72xFnVgdTWRuCrNKwiAU8HSL6i+dQKigObD5Qb125I5IJIgVm/HrA6JUR1CMjvDXlP4IPG1gBz9pXRK0WibE2ROuPhWti/f7/6AWnatKlHBGFXksbKxqGhVaROnYZK4MECROHh1bRV548lKgY/RLACwQrMkyYtNLiogAAJn7lYFAOLViHAahgPvli8B1OzZ84cr17MIZbiJd5SGUiLRZ2QZ3T0FjXNcO/eHVr9XtbcUsyQ5s3fU8IwRCNbQ3T0XJkxY4wmui01PFhjIamJE4cnyQLCrrWXFYhXnTo11oRkbRXTEVPVDwn8dWLhvJMnj2nnfrDqG6pXrydffBEtW7asUZYwEO/gkxcC+JUrl7V21Ba8gIAZFsVyJOB86BYvcBVw9+4dlTdEIOOAeuE4rGj2u8jixTh/bttHAA+cW7ZsUWJCaGio+nREELav1MSxT58+oS1KNVldwxAkETAAUrHiK9p1uVuzOH45UQKIlx980E6GDJlosCaHlXn37i2UNVXfvvZZN6D8du3e0fqBblofMVCVhX5h/Pih6hquX/+Rn0kcxD02duxgee+9XmqACgM2VasGKyt4LJSmh1dfLa02e/dua6gndqRP/6S6rxcu/Ezdk6g7Bm+wMryzAe5yXn+9glq8COIz+hBY3A8d+oESpdu162HoF1EWRBgMkkG47Nt3lOpL7K0DhAYILSgPixqhjzUOsG7ztuDK/goCO6zicc0gQHjC4p0QifC7g8HC5ITgIUN6C4QfDNiNGzdXWzz0aeU2B65XDh7cIw0aNBVch2fOfCdbt64z5FutWl2zU9MTEn7VflOGqUE/TKXHYCIWbcT5MRdQ7vTpo7UBgSfUecQLF3437Alnz36vDbB+rqa0d+78kVoYcsWKRapNGGA5e/a09ps9TllR2pMv41omEBgYKCtWrNCeSULVP4jCnu6/LdfO+hFccwjwRetMwDMG/q1fX1ljsShRVnCxhcHGESM+UoNR8OGtBwxOYRBv8+Yv9F12fcKQoEwZ2wYe9+3babj3YBG8detaJWoYC7KXL19S75dw4QC3EBhkxCC9s6FMmYrKAADW0W+/XV5bkPd59YyN+xuis/7cZqmcAgWKaL7tj1g6zP0kQAJuIBAcHKw9B0/RFtN8X3v/jHaLIIx7P3J+pDQr2UxpRK9XfT1Z0RPPN52rdRZYFPed0Ve1fO7wuVIjew1ZfmK55MqXSyDgQvvCdunqpWV019Hy6/lfE1Eq9UYppYOt/GylWour/Jvl1ZpX6Z54+A6wcuZK2ai5ehy9crShThd+vCC96/dWRpnQnnLlzaV0MOhli8ctlth1sfJe5HuJyrH2pejrRdWz1JDWQ5RR4uLxi6VkpZJqgTw8z0G7Q1uXHltqMRsYN0Knw6x8aFvfff2d4vnpik+V+wfjhDD+vPnHTekxpofaDUYfv/uxcnkxdctUJQ7jQKZnM0lonVBZOHqh7Nu4T86dPCeHdx6WVh8nX4Zxef64bbNrCFc2/p0O7wguWFjerpixItmsx3Yfqxaa0xdGg8+SdgPbSfx38bJ3w14JyBQgwxYNUxcMRi3qtqgr2XJnS5QvLiaMkNRvU1/tr9e6nnQY3EGtVIgdUROjZM+6PTJwzkCDCIz9MDmv3KCynD1+VnBDI8Ditkz1MsoiWe1wwX948cFNMn3rdBnyvyFS6a1KAvE6W65s6uJtO6CtKgXCsLHjbtx0r1d7Xd3sVRtWVWlsrY7u4xhl8591BhhF1MPly5c1i72mykoYLiO8OcB6DuJtsWIlVTVxnqtWraOsJ+AP1zjMnz9Vs3RbJlOnLjGIwDgOyxAIvJgKCGtXhPz5X9F8cDbTFvDJpQQPfLeljLi4b5Qg1anThwZfc3gwh9Ayb97DkU34+6xbN0yVk9x/e/ZsVwIW6mzsAxgrSpsu1IG8nnjiCfXyYil/LJIHEQuLgOgP8xB34XcYIgBWtMb+kJBymjjeXFUPLx7wR4x4CBCFlyzZpK2evVGGDftQ7XPkP7y4wD8wAiyCEUz94EFcgKheuXJNg8ULLHbcGdhXWO8rwAfigR6OHTumBIXixYs75TJCz8+Wz3nzpiiLeyzuo4cuXT5WVqojR/bRd6lPDH5AtI2IaJdIXM2QIYPmWmGRshI2FQMSZWDyBZazHTuGC152W7fuYjiK/bBQnj79U8M+fQOWvphVoM9SgNVtSEioYIEfvc9BXFjvw38kBmqMA8RuiBDwv4jQuHFrNWiTOXMW42h2b0NsQ1+watVu1d/h3kbdSpeuoNzoIEP0gRBs9ZAjRy614OeoUdOlRYuOmjCc+FlEj2ftE4I82jhs2AfatZRNatd+XRso66cJf/ZZON+48acSZiDO2PMPC7XZG1zdXw0dOlGd/02bvlCCKqzZ0R5YHFaoUC3Z6kEgHThwjNbueCXYwzocFuadO3+oDTj0li5dIjTLxfXKehsL8GEQYtCgcdKjR0u137gAWGfD53Tjxm21l8i+Kg9Yo8Mq8aOPkr4kYSCybt0yUqPGW9o0+hFqEAH316xZ442zTXYbFvJdu/ZRi1z169dFG9gYKCVKhGj3V2818Pj0089qbXw46y3ZzP6LwP47+f4bIrAeUqL/1su29xO+chHQp7siWPJprYut+qdxWbb6GzZOo2//+uslbXFb2/psiN66Cy88H8F4AC4XjAMWFIUwi7Bv307tf+f9A6tMtP/Qv6xYsUP1CRjsx7Nzt27Ntd/Rh89iejxzn2jj+fPx5g553T72F8n3F2TkO4wgAusBYjDe7SMiIiQhwXU+ffMH55c2/dvIH7//oQRbvTxLn8unLZevd3+tjPn0awkz1vGuuWzaMpUMa2xB34IhIKxjMSveNBQsUVDgIxcBehcsefMVyae+Hz94XD7p/IkMmDPAIALjAITfnuN6yq41u5RYi30QjpG+alhVfLUrQMyGoJw1V1Y5GntUiduFShZSeaBtEGPPxJ1RxpuWMoYlNTQv6HYIr7z2imr3qlmrkiRZ8MkC+XLll4b90Ad7je+lysaaWnqA3gVBunqj6moX/Ae37W9bGXoe/vqZIkIwLgZcjLCCnfzxZPnlp1+s8j2y64i8+PKLieK8VODhixdWPjQX4CrBXND3Gz/AXP/tulp1sGaTmmokwzQdhGWIzrAmNg6Pp33c+KvD2zf/vKmskbuM6CIhVULM5gNfJ3BCjhEd44DRD1zgWCmRwbMEMHXwpZceCQCeLd220v76655hyrKeokCBwmoTL8h6wKIfeMnEitC6Nbx+DJ/16zfWRIjvlJWh8X7EvXLlF5vKQDpYYsGHXZ48iS0S4bMNL9XXr18zzt7qNkTQjz9+T4nIughtnAAvzJaCuZcVvERgKjhE7yeffDJRUlipQGxavfrRKKYuFJuzTIOgBUuxxYtnKUviRJnZ+GX//of+gREdFi8Ipn6CYXX8zjtN1bETJ47SP7Aiwf+yZcuhrAZhaaAH/OZhMbnvvz+p71KfU6d+IrCcMl4NXo+A+wD3Q2RkL80i/a6+2+onrnlMUYawZhxwv0BILVaslPFutY3BKhwzDuinbt++KdeuJRUl9XvPOD629f1p0pj//TeNb+k7BmUnTBimFmyDQG0uYJAGC7otXjzTYLmqx4OFNfpMRwMs7rZuPSr9+n2ixHlMe546dZSyksbAj60BVsWY3m3vPwx62Rtc3V9hABKWvHDxAxEY4jsWMUW/aq6/N1dfXO8IsM5u0CDCEEV3OYFBEWP/qDlz5tauwxe02TLrDXHxOwNr+TfeqKUNzD2cio6DeI798MOhmhi0ULOAXGOID2t0CELol1FnPeC3Em6EbA0QiuAvFQGzTPD7WKvW22pxLD0PCGG6OwB9Hz/dQ6BIkSLa+fDu52x9QAouWiwFXJ99+3ZWAwiYAab/69//fc0COPH7haU83LUfv0PPPps52eyNZx8gsv58ZLyg7vbtG9Q9q7/r7ddmS+F30XQ2TLKFWYmAZ79x4+Zo/uh/1AbkT6sBQLg8i4lZYCWVaBbEz5n9XbOaiAdJgAR8hkCbfm0EgjDcRHz5+SOh0lwDoHFlfDqjPJft0UwOPC/kyJNDLGlc+rOuaX56f6d/6sdhUAlB1ZyLB4jKWbJmkUkfTdKjq09nNC6k/e2X35RobZyp7tbUkt9ixIUOhucr45CncB6zvo6fy/6ccvWA5zQ95M6fW57K9JSy+tX36Z96mwqUKGBzGXpaf/107m3JCSoYhegysovyzTG8/XCrOeUIyqFcORhHgv9ehOezP2+826FtjJTARwguHnMhZ96ckuaxNPLV1q/MHXZqH/yWtKvQToqVLWaxfBTwTJZn1EgG/JlAONbD9hXbHRq1QXr4ocmaLat6icWLL/9ZZgCrED3A2i82Nla+/fZbu/1/6nl46jNfvleSFAWfvAjGItG33x7SrEhuyCuvFE0SHztefDGPmhK9b9+OJMdtLQMJc+UKUunh5sA4QGR68smn1PRd4/3WtmGdC1+aup84a3FtOQYG8I8KKyv4pzT+B8tKLOQXH38mSVamP7h6hIc+PB+oRav0ffZ8Glu8POSWRrMIPmfI4tKlC8qNhi6g7du3Ux1zt39g9hOW+wmdDfoHPaREfwF/4adOXVMvvXhAwr2CafKwqLx+/apeNfWJF1dYrerWVYkOal8gyF679ptFH4ym8fHCjaBbs6sv2n94cF237oCMGTNL32X4xIwC06C7tDDup0zjuOM7LJC7dGmqrO+rVatjtYgWLTrJuXM/aJbej/rFixfPK2te0wdZqxmZOQgrM1hxL1u2XU6cuCrTpkUpNzO9e7czE9v8LrgTgP9Oe//BGtfe4I7+6qmnAhINEGDWhambDGv11M+B6bWIfMEXvp1NBz4hFsE1iR727dupXH1AhDUNcDeBQUK4gNADfNXjmqhXL6mPUFsX8EJeEH/hzgkBrkYwsKAL2Gqn9h9EYF380/cl96n3Ufy03I8vWbLEgBH+JM+dO6cWDA4KCjLs98YN+DBHwMCR8YuxcV0xuNez5yC1wGVQUH5t8HuiGszCLAoMvqRUwIyRO3duqefM5OoAtwrGg0HwEYygD5TDZ/zFiz8bnmfB4sCB3Zo7mcoqnjP/oZ7mAowZ0EdjJseRI4ln25nGR/8DMdsXAvsJy/0E2fgemyFDhhhuO+O+HS6BXBlgzTp4/mC1fhMscbF4m6UAjQtGfaZ99l93/xIInc4GaD3w22tJ48JzEo65WuOCdbBp0K184crVUrCUzlyaz7Z/JjFxMcqIE7rgD8d+kMM7Divu1pjbU4alevrL/hQTggEw/P1wKVaumLr4Vs9bbZEpTLkh1hoLoDjRUPyrhzv/4PLjiR9V2U9lfMpsHXCTwP2EHs9sJAd2njt1TmYOnql8l2AkBg6+rQUsHnf31l3l40WPh4Xx4B7CkYDyKlSp4EjSVJUGq43WqFFDe/D0HQFYP0GY3m0pGP/onDoVp6Lp7g3MpcGq0CdPfpvkkK1lICHcQGTJEih79mwz5IOHqQMHdqlp3ZZGOQ2RjTZOnXoozuvTyY0OObQJf4sIWHAKFn2m/zAVuF277jbnrYve1hZ9spSZqcULXt5eeCFnItcQ8FFs7GsVApyrLV4s1Y/7LRPAFLOwsLAU7y8wFb5Pn05qqiqm1+N3DC+gxvc9WoF7P7n7HvHM3fvYbxrgWgV+Ua3laZoGfncthQcPHo30W4rjqv2YUt2nT0fFadmy/xmmE1vKH/cfBo5geauH5cv/Z/Bdqe+z9dOSyIA+FlOc4XP40qWfk0yBtjV/d8Xz9v4K/aJpwP2AhUVNA/YbX3OwxEWwNFCC/ZiNod9Xuu9PuAxxJmBBKQzQQJSG2w1TdxgYINm/H4vmVXamGKY1IRAfH69cfxmLBEFeLgDrTcAsKLjkwSyKI0cO6LsTfeL6xuAxrGj15we4KsBgCQY2Uipg4C8gIFOiQRhLdcF1X6ZMRcNhWM7DjYXuOgsuiBo1amU4jvsTi/466x8YC7DC3YSlgOfXV14JNrg4shQPddEH8C3F4X4SIAHXEti7d682A2Kw8g3sicE9uERo8WELufrrVRnXY5zFxsAFA4Tgb/c+er++fP6ywH/v2+2SDkBbzMjCAfgX1ibiiiWNC8mwJtXtG7cF5boqpM+Q3mJWD/7VKmQhWEqnP2OZJjuy84j0qNdDBrccLCcOnVDaIAb4XVmGaaLdykoAAEAASURBVJn+9D2trY1J9+ChFaGt8W2JB0u6QXMHScSrETKh1wT5YNIHZhc7q60tvIRVBwdEDBCIoXDlACfWY1eNdYlLhGeee0ZV9+5ty1NfMaLyYoEXbWmWzXHgGqPvZ33l98u/S3hwuIzoMEK1yVIGsBrOXyy/cg/xbud31eJy8BnM4F4C/fr1U4uHlC9f3r0FpWDu+kvuvXuW7wEcg/9LZwKssOArEcIURClYZC1cOENNoYXQak/A9DoEU+tie/IwjgtLDgRMy9ZfkIyP27utT2k3J0Ikl5epxQviww+ebvGyZctatTgWXuoQ8AMJixcsdMSQsgSGDx+e4v3FmjUP/RXinoKvWv06gX9b04B7P7n7Hmn0PsI0vel3iFdnzpySP/64bvADbhrHW79jUAruGCCMnD59XFssr6Xm6zvOokACsTssrIXqw7CYGPokLEhkKytTDmPGDNLKH2W62/Ad/SXc2tgyfdqQyAMb3t5f6de/KQpL+43jQbSxFpAH7p979+5pgx8ZlOCE+PYMhFjLf782wPfvv/8kWRxv376dqiz4IWZwDQGI6xMmTFAWwEE+Iv4atxzXYp8+IzVf2PU1X9pjNT/rnxsftrhty31gnBh9uzsCfjtMZ6yYK+fq1Uf+gXEcIjKe3/B8BP/ccAlj7N5r376dWizn/QNjRpzurkVlaOY/LD6JmSLWAnzPmxuEspaGx0iABBwnAIOuZcuWebxvbz+4vez8YqdsWLRBqjSsYrYB0HawLhQMAqHtQJOaFTlL+bqtFlbNbBp7dtqqcYn2Omm8BpU9ZaRU3NHvj1buN4YtHialq5U2VEN3AWHYwQ2LBGy2CL6akHg6qcUc7TwA8+wOkR3Uqn9T+041m3r9wvXy6fJPZeDcgUrwgK+QRYcXGRZvM5vIws4b124kOQIH2wjwZ2IuwHIWJunwKeLKgNEijFpgQbh+n/VTnQUcWFsLYR3D5Myxh462N2v+8uDX2JnwmNh8CThTjE+nnTRpkte7gHAWsD51FgsKmQuwkr19+5bTbhhgOXbz5p+aEHxY+X7ECzQWYxo/fp56iTZXtqV9EGw1T43KR7GlOPbs1xnoYqu5tMYLV5k7brwPLwQIer7Gx5Lb3r8/scUL4sOCBxYvsBDDoiovv1zIkI1u8VKuXGXDPm6kDIGU7i/g6xo+SsPDWysLduOXfOPrF1NnYb2L6/P33xO0abmJ3bXo9M6fj1ebtrpggViJYM6NCvajD3BXwAu2MwEucDDDAL/LU6YsVpZ1Awd2s5pl8+bvKZcyWNhry5Y1UrNmfavxrR1Mzt8r+hSIHLaKjCNH9tWmexey+1/nzg8XWLJWV+Nj/txf6dczfgPNBdw7+fIVNPx+wSIQAftdEfbt26lcKpm6gIALCrhlKlToYXm4lxmcI4D7Hv23L4rAestr1nxL83v9vvaMtUpzxbNC3232E25srIVnnnlW66/vG6zd9bi6lbz+3VWfgYHZk71vMOBibhG7oKB82joWp+Xw4X1JBk32a4MpGJDPkye/xapinQzj30dzEZEPBggtBSxeDNc18CduLaBvoBBsjRCPkYBrCQQEBFjt24ODg2XPuj2uLVTLLf2T6ZV2Bfein3T6xGz+cQfi5I133pCZO2YqX71IM23LNIno8WhdA7MJzey8cT2pxoU1pGDxa0njQjYJlxKUewhrVsNmikvRXdtWbJNlU5dJ74m9E4nAqNTffz1y4QMPAro72RStsJcWbpMKiIeifdv3OdwE4xNiLpPmHzSXV0q+YvEixWJyZ46fUY60MWoCVwhYGdBayPRspkQXgh73u28eijP6d3zCgXapN0pZdOi9ddlWtXphk+72vRwZl5Hcdo3wGkrUhUNva4vnvdnsTWU1vWT8EuXT15mbFtMA0jxIk1zVeDwVEMDLZMWKNZSlrrnmfvnlRuXjs23b7uYO27wPD8DffHNQWSiGhJRTi8w5amWMB274tcPK7+amVNv7Ig4/pTVrvq0YmPNLCoHN3CJK5sqBhe7SpXOVaJPcS4E5eBB6Ta0K4QcPi6nAgtp42iPS79u3U/vfeYsXlQn/82kC8AWMFdQf+qhO3JSHC8U9nJKFawlibYcOPdUL8I4dGxNH/u8b9sPfaXKWUHriVq26SPr0T1pceGjSpBE2Tf/V8zP3CXcM5l7aXSlQQFiIjBwvcPWwceMqc9VQ++BDGX5isUgeBFHjBcIsJjJzACIvfA1bEsphrRwVNUf59zST3OwuWBfv3n3K7n/Tp0ebzc/STn/ur8qXr6INDmSTXbu2JGk+fNvjfjNeiK6W5kv4iSfSK0HKNIE1y3vTuPp3zPQwHeDDtYBZNfpCoaiDpUFcPR9+ph4CQ4ZMUGJw165NtQUW55ltOARVWA3j+rYUQkIezoLDGgl6wLMN+iq4CjNnvYsFPhEcmakFv79wg2ItzJ49QYnTpnEwYwr3AGZoGAf4xd+3b6fVfhk+9F97LYfmEsS6gIv+fcWKRYLZH6bh7NnvZejQ3prY9L8kfsdN48LtmKX1OEzj8jsJkID7CWTKlMlhPSQ5jat4ueLSuFtjqxrX2eNnlWhctmZZtVgaNCxrIeOzGZWBoqm7hNPfPHRxaJwWxiBNezWVb/Z8Y9YF6dkTZ9XCanBj4Uvh4LaDqrolQh8an+h1//3X3+XPq38qjQz74B/573uPhGE9nqs+YSxauFhhV2Xn8XxsEoKdqRUuvP2b9pu9+PR84Vcpcn6kElv1fcafxcsXl8EtBsuoTqNkXM9xMqH3BJnWf5rArzAWWzMXkObX84l/rK//fl352EV8XCTGAS4arly4IusXPVotGscxShI1IUo6Du0o+YokdsNw++ZtJTZbenEzzt94+/7f9wVOwCHEGof2g9rLrT9vSd/GfdVCbsbH9G34Kn6z6ZuCReJqNnbOGvhM3BmpU8/6Yjh6ufxMWQL6AzcWwbD1eoMFL3xemgZ9n6mF09ixswWrTZtakegCKFZIL1KkeKLs7C0DU/9gtde4cXUZNEjz6aOtWj1s2IcyefJIJaKYE3QTFWjypX//T5XoNHv2xERHwGn06AFqn2k7sdPSywqm0ePYlCmjEuUH5lOmjJS2bZNaB8Iy6/r1a4niY/EgLPYzYcICNW0x0cFkvhw+vN+siKCvjF2qVDmtzekT5QJLRFjTWLN4SZSAX3ySgN4PWLN8hTCJoPv91huKl9gaNeqpaxXWvxDv8PIMwbhr1z7qmoewZRxwHeOeHDZssvFuq9u4BuHLdu7cydqiRYmtpyBE49rVXVTofZH+aZyxvs/c/QuB4tKlxNZsV6/+rmYtIA+dk3F+yW2jz8A/49C0aXt1X334YXtN/Ej6gK3Hbd68oyZCxDu1Iv2+fTvVg+vMmUl9yUH4++ST/mrhPlj8eVPw5v7qr7/uKVT6pzE37LO0H79reoBV5KeffqYEIFxjxmHq1FGCAUQsyqeHvHlflh49BgrOo/HvGc4hhDcE0+tMT2v6iSn4mO2BgQbjAOtFuB6qWrW22r1jx6ZkrRCN03PbvwngnWr48Mkye/ZK7d8EqV37dZk1a4IazMD9On/+NOnYMVytyzBv3hfab4D5tUIwqNGp04eCBSo3b16jBh/Gjh2sFi6EuLB+/UptkLCsembETKom2gzF0aMHKpG4Z8/WyrWOPaThw/fQoVizSbAmwttvV9AG44cLfAC3aFFXuR/SIxcsWES5QcqS5Tm1C781Xbs2Uz7yce/BZQRmOsTGfqknMXzCNzIs7vGbaGlmDMTvQoWKaYvrfS4ffNBOWxjuU5XX7t1bVZsHD+4hCxasUf2BIWMzG8gflsvOzBwxky13kQAJOEkgXRr7XaBCdNy7Ya/Aqtda6DKii+TMm9NslCKvF1GWrQOaDTBoXFP6TJGoiVHKCNJcohLlH4qf0K30AFE4/rt4eTLgySSL07Xq00peLv6yTOs3zSCQIh30KMzGL1urbBJ/xNC4EO7defgcpb7Y+B/Ws9LTGyfR98HFq2nQj925mXR2IvbhH3wp6yFvkbxqE1qWcYhdHys1GtdQ+h32I03GZzKqKPaWYZyvpW24ji1U5NEMXUvxvHV/Gu0H0rLHZqNaFyleRCZtmySZAzMb7bW8iZX7hrQZIud/OK+EqwwBGeSlgi/JnN1zLCaaM3yOvFzsZeUrxTjS1StXpW1oW+XoOt0T6bRpmPeVoHvx3EWl8teKqKVWZ8QxPWBhuf5N+ku23NmkyjtV1EjMb5d/U+4kWoS0UFa1hUsVlv6z+suLL7+okuGGHtNtjGojfLZcir8k3+z+Rhp3byyhtUP1rJULh6VTlsrJQyfVlCm4t6jVpJY0693MEMfSxqddP5W4/XESfzpejf7APQRuUFgkv/fGe2rkAlMInn3uWamljU53Hdk1SVanj56W0V1Hy9zYuUmO2bMjZmqMlMhSQntQsn/6gT3l+HtcPBBfvGjTbWQXit27t2liyiTlexDT0WDZgNsVFrS5c+dRVgdjxszWpry9kChfPIjHxm7XFnc6puK/+urryqIP1kOdOjVWD6GwaMD0YlglQPzEyywCRBeIs888k1mzkCitLCwgIEEArVbt0aCBM2VAXJo3b4q2WMYLyjL4/v2/tQfwXzQri8tqIbnPPouxa1EPiLD9+nVRFrRYNRsCEhbKwkvym2+WUtZZxYuHCPylQojGAlpYVRs8wQ7CKqw49ID8MB0c57Vq1Trai8Ft+eGHk9KyZWdNOMujRxP4xUT+EMnAM3fuIOUjdPv2DcpdxahRMzQryod+hw2JrGzgfA0f/pFaIR59HKbio85YNAgBViQrVy7WrE4eit6w6Onbt5OaSrlv3051PaD9sEhs3Tppv4E8nA05c2IhJddf687Wy5fS29tf4AUe9zOuayzYpotLcA0CNwZZNMt44+sXLGJiFghe2N99t4USen/44ZS6PqtUqS1165ZWL+qwyMdACuqDsHbtcu360lwuaaIAFrLRLYuHDJnokK9f3AefftpfE5/fUpbxly9fVNdOmzbvqzJbt35b9UUQdLFYHKzBevQYoOqCl31YhuHewz2LqfeLF29Qx/Af7l281OfQ/ELWrv2Oof8IDa2qfQ/R/I9nlOLFS2kv6LOSFWdhybt69VI1UwF5I92bbzZQbjXAcMaMMVp9H1M+J4ODS2oWdpsRLVGAdXKFCgVl69ajBpE7UQQbvkC0gPD89dcHlPhXu3ZDNX0YAsT69SuU/++WLTvZkJNnonh7fwV/yxB9IKTiPnnttTJKHIOgBB/rmEIOAahMmYrSq9dgNXCCYxB2cE+EhlbRrOV7GaaZHzwYq66FkJBQ7bzkUAOXTzzxhOqjzbnqWLp0viaerdYsFJsr60gMilSuXFObzVFFLTCIRd7GjZur/WZksXjC9mu/veHh1bSyfkzyW9KyZT21gBxcBdWtG6YGCSxm9N8B9t/JEUr+uL39d/I5uj8GBgXRr2Bw+qmnHq7NgOcE+Na1JeAag7Ut4uNZEQzi4r5RfR38qWNgD/ucDXimKVkyl+pHsTiup8Pnny/R7tFa2m/qQzHZuHwI3ZiJgvsVz0CHDu1VA5347cIzJAaAbAk7d27WfJUuEHtnXdiSt6vjsL9wNVHm560E4EM4T748svGy+Zlx5urdpnwbOX/mvDLcg1uhXPlzyZD/DUliNKinPbzzsECk7DGmh75LfcKiuG94XyXiwoUD+hcYC2J2OIwDC75aUMatHifZc2dPlA4+hb8/+r006tpILYx26sgpZflb58U6SrwtHFJY6VK6n2GUM2vILFXnkCohyqL4q61fCQwnoV9h3S4ELFIHNxYQWKGlPf/C8wKrZrQtuTBj4Aw5uP2gQAPEAnUQuas3qq70rH6N+8lPp38SaG1YIyt/0fzSZ3oflSWMPJHm5h83lXsM6Gojl46UTUs2KR/Axw8+NCrJnT+3lK9dXmljeE+e/NFk2bV6lzT/sLlkfzG7fPf1d1K5fmWBj+D2FdtLiQolpGK9igJNz5EykmsvjkMrXNRvkSyLWmZLdK+LY7MQ/G7Eu9JiZAvJEZTDo42Ab4/xvcbL+DXjk9wEGP3YErNFXbBwyN20Z9MkdYNPFFj1Zs6aWaWHco8bFw6xn87ytNlVFDFCAqEWFz8EWW8LcG/x44kfpXazh9Ygjtavf0R/+WzkZxIUFORoFkynEfDFF4PkThw6WAgQEGvNPRQnl97ccdyvbdu+IxCm33+/b5IXB/irGzSou+CF+/Dh80msXs3labwPYgwsLTClGy/msG6EAIYHdwjb9q6IDcEN+WFKvLm0uhA8duwczRKmrXrJgiCMFyVTi13jevryNl8MnD97nuovcL9hyivE1Hz5CigBALXHQyYsCi3d15gVgAEhiK+wLHM2wHUKrBeRnyvEAuP6YADpoVuCrEoogyXnuXNn1GJqECgCAh5aARinccc2BIxx4yKtLvSWXLkY6IEIjQBme/ZsU58FChRRg3Keakty9Uztx3Fv6P28LfcHrkcE/C7hnoSAjnsPCwtClLMWMBMFvryNByD1+PiNhl9gzBTBIqy2BPbftlCyHsdT/bf1Wvjv0REj+ijB+aOPhnm8kRh0haskdwZYMmMGSfXqdd1ZjEvyZn/hEozMxEcIoG8//OCwR2sLUbRjlY7y8dSPlUGgaeGwNB7WbpjkypdLxq8eb3pYCacQjNOmSysQT9EGaESwgH0myzPq09xz94WzF+Sxxx/zuKaXpAEu2HH3zl25cOaCwIgSBqcQ5RGg5d29fddgDeyCosxmsSlqkwRcDZAeXRML/GYje+FOm4XgiVMnyq0stwTWt54MsJKt+FZFsyKvXg9Y2eJGmLj2oaWcvt9fPzEK1GlYJ0nOT3Jy7W9avKns2bZHs7gKTC4qj1shwBcDK3CMDu3fv0tbzfptzULrd8PIo9FhtYkX7Ndey6lZwH2lLARNj3vyO6blQpSGj1/9h8W4fFMh2PiYv27zxcD5M+vp/gJCFMTSMmUqOl955mCWAPxGwiUHrJoZSMBbCbD/dv7MeLr/dr7GvpUDZnu89VY52bDhoBrQ91TtMZg3f/5UzWVGb7cVCfdCcCuxatVulw+KuqPS7C/cQZV5eisBe2e+u6IdsNCFFas5kVfPH4uiDW0zVHb/uVvfxU8zBI7GHpUs2bIYZvmbieKWXRCCg7S/phFJjVHdUqCLM7XZR3CBvAWUJa2Ly082O1jlJly0vvoy/Jfkypsr2bx8MQKcXHer3U3+vPbQpzH8HIOJsyKwsiY5dpoisC9eFD5aZ1gXw2IP0wwtBfhsxIuWrQtTWcrHFfunTv1EWrWqpyzzzOWnu0jQP83F4T4SSGkC77/fTHMRUcWsv/CUrpsvlo/+q5k2Gwe+NvWAmQMUgXUa/CQBEiABxwhg9hWsgeET3ZMBPr2NF310ddmw7sdicqNHz/QJEdjV7Wd+JODtBAoXKWxxfSZ31R16jqW1rvQyoXHlyOPZ2fh62b7yidn+MBwd1HyQx6u8Z90eKRZczOPluqpAm4XgwoULy7Hdx1xVrs35wPJ178a9sm7hOjWl1TghptmtmLFCjaa0+KiF8SG/2ca0gK93f638xaBRMVNipFGXRk63Dw7GK1Wt5HQ+zIAEbCWA6enduvXXfG8+9Olpmg5TYN97r5Hmn3eM8vdretzT3+HuAb4j9ZWzTcuH2wkE+CNGX8RAAt5IAC/VWEWergVcc3bOn48XLM71++8PF+mIjp6r+X1t5ZrMmQsJkAAJpHIC8NEO1ymmCxe7EwvW0DBdb8OV5cF1EHzA64u5ujJv5kUCJOA8gfLlysuxfZ7VueDi8/nszyv/tXBxYBq+2fONzBk2Rz6c/KHpIX43IoB1yHpP7C0dIjsY7fXMZvzxeG3diMT+mz1TsmtKsdk1BIqDpd6Bvw+YnSbtmuqYzwXOqjcs2iCnvzmtrGHh1+Tff/5VoyhwAA13FbgI/DGgY5gzdI5aBfKf+/9ITW1V3qCCQU43Fabsf5/5WyIHRTqdV2rPgFMF7bsCsHrz8uX/04SpTGoBJqSGpTB8/IaHt5Lg4Nfsy9DDsVHXDh3e/W+hlTRa6Q/UApZY2A0rV/tz4FRB588u+wvnGaZ0DnPnTpbr169qz0LpVH9VpcqbKV0llk8CyRJg/50somQjsP9OFpHLInzxxVKpXz/c5y1or179XY4f/1oqVqzuMjaeyIj9hScoswxvIbBhwwZZc3iNtB/U3qNVwmwBLHgGy9LAHIFqobMH/z6Q679dl+eyPyf129aXrDmzerROLMx2AqXSlEpiqGp76pSPaZcQjAXjwvqGSf7g/Clfc9bAKQIDmgyQ0f1Gay+xwU7lw8T+uVgczysJmCPAFwNzVOzbRyHBPl6MTQIk4BoC7L+d58j+23mGzME3CLC/8I3zxFq6hkB8fLxEtIuQKdumuCZD5uL3BC7FX5Jx7cfJzq07fbatNruGQAvr160vR3Yd8dnGsuKPCGxaukkKFSr0aAe3SIAESIAESIAESIAESIAESIAESIAESCCVEAgKCpL92x+t/ZBKms1mOkHgx5M/StHCRZ3IIeWT2iUEh5YLldgvYlO+1qyBUwQwggH/wGnTpnUqHyYmARIgARIgARIgARIgARIgARIgARIgAV8lAG0EGgkDCdhC4NThU/JmTd92DWeXEKyPlty/f98WPozjpQTgDL3B2w28tHasFgmQAAmQAAmQAAmQAAmQAAmQAAmQAAm4n0DFihU9vmCc+1vFEtxFYOeKnfJ6yOvuyt4j+dolBKNGYU3C5PhXxz1SORbiHgJr56+VKpWquCdz5koCJEACJEACJEACJEACJEACJEACJEACPkCgZtWa1Lh84Dx5QxXv3Lojp+NOS2BgoDdUx+E62C0Ed+/SXb5c9qXDBTJhyhLAhXsu7hwXiUvZ08DSSYAESIAESIAESIAESIAESIAESIAEUphAiRIlZOnkpSlcCxbvCwROHz0tnbt19oWqWq2j3UJwmdJlJGpylEBQZPA9Amvmr5FOnTv5XsVZYxIgARIgARIgARIgARIgARIgARIgARJwIYH06dNLhcoV6CfYhUz9Natty7ZJ7Zq1fb55dgvBWGAMCviRXUd8vvGpsQGrZ6+WVi1apcams80kQAIkQAIkQAIkQAIkQAIkQAIkQAKpnEBCQoJs2LBBIiIiJF26dPLrL7/KnnV7UjkVNj85AttjtkvlSpWTi+b1x9M6UsOO7TpKWLMwCa0d6khypkkhAlgJM92DdIJF/xhIgARIgARIgARIgARIgARIgARIgARIIDUQiIuLk127dsns2bPl2LFjhiZXq1ZNKlSoIEtmL5HwruGG/dwgAWMCZ+LOSNasWSUgIMB4t09uOyQEBwcHy/Vfr8u1hGuSOTCzTzY8NVZ6/cL10qFDh9TYdLaZBEiABEjAAwTu378vv/xyQV54IZdgBhEDCZAACZAACZAACZAACaQEATyXfvXVV7Js2TL17/Lly4ZqdOvWTWrWrCmVKlUyCHvTpk+jxmUgxA1TAjtW7fAbPS3NAy2YNtCW74ujFkvsmVhpP6i9LdEZJ4UJwKdzhYwV5ObNm4aOLoWr5DfFp0mTxm/awoaQQHIEHPzJSC7bVHOc/UWqOdVsKAl4HQH2386dEvbfzvFjat8iwP7Ct84Xa/uIAFw+HDp0SCZMmCDbtm0zHMiePbt06tRJGjRoIIUKFTJrsBA5NFJuZ7lNq2ADNW4YE6j1Qi05eeykBAYGGu/2yW2HhWCMrsCXyp6beyRDQAafbHxqqvTsobMlq/Y3dNDQ1NRstpUESIAESCAFCOAhHD7XjB/A9WpMmTJFunbtqn/lJwmQAAmQAAmYJQDxnYKkWTTcSQIkYEQALh9WrVolK1euTOLyoX79+hIeHm6TeId84AI16tsoo9y5SQIicAsxrOkwOX7suF/gcHjeJqZ8Rg6JlMXjFtMq2MsvBYj2n0//XM6dPeflNWX1SIAESIAEfJ0AROCYmBizL+8UgX397LL+JEACJEACJEACJJCyBG7duiVHjx5V7h4mT56cqDJw+dCoUSMpUaKE3TOh4QI1rfaHtZVyBOVIlC+/pG4CX8z5Qvr06eM3EBy2CAYB3IAZM2akVbCXXw6bojbJvTP3aA3s5eeJ1SMBEiABXyVgyRKjZMmScuTIEdWs2NhYKV++vK82kfUmARIgARLwMAFaBHsYOIsjAS8mAEODrVu3yvz58xPNOCtWrJg0bNhQuXyAkOtsoAtUZwn6X3oYVpZJV8av3Kw6JQTjFA8aOkiuaH/0FeydFzwu2nq56smJuBM2TYfwzlawViRAAiRAAt5EAL8tWHxj+/btMmPGDDFdfAOWGKVLlxYIwViVmSKwN5091oUESIAEfIMAhWDfOE+sJQm4gwCeNU+dOmXR5UPr1q2levXqLtc4dGPHA38fMOtH2B1tZZ7eTQCGlZe+uiTTJk3z7oraUTunhWD9Rtl6ZatkDsxsR9GM6gkCMVNj5Ke9P0lMdIwnimMZJEACJEACfkoAv/e7du2SzZs3i/E0POPFN4wtMWAlDCsNisB+ekGwWSRAAiTgZgIUgt0MmNmTgJcRsPasCSMDR10+2NvMrt27ygulX5BaEbXsTcr4fkggoniEbF69WYKCgvymdQ77CNYJBAQEyKIli2Rct3EyPHq4vpufXkDgWsI1WTB8AX0De8G5YBVIgARIwBcJWFp5GQJv+/btrS6+gUU7KAL74llnnUmABEiABEiABEjAMwT0tSVWr16dxOUDnjUrVaokxoYGnqjVBz0/kJCyIVKtUTVaBXsCuBeXcXTvUXniwRN+JQIDt9MWwcgEZvvFSxaXXtN7SYnyJbCLwQsIDGgyQJrVayZNI5p6QW1YBRIgARIgAV8gEB8fL+vWrZPZs2cnWXm5Z8+eEhISYtM0PDzYBwYG+kKTWUcSIAESIAEvJECLYC88KawSCThJwNjlg6l7sWrVqok9z5pOVsVq8ncj3pVaXWpR37JKyf8PdqneRcZGjpXQ8qF+1ViXCMEggimgVWpUkXXn13HUxAsukdgNsTK7z2w5fuy4F9SGVSABEiABEvBmAvpib6YP5M6svOzN7WXdSIAESIAEvJ8AhWDvP0esIQnYQkB3+bB48WKJjo42JNHdi1WtWlWtLZE2rdMT1g15O7uxd+9eadO5jUR9G+VsVkzvowQuxV+SPvX7yIlvT/hoCyxX22VCMIqAL5WnXn5KwruGWy6RR9xOAKNsdXPXlUP7D/mdCbvb4bEAEiABEkgFBPA7gcXeli1bZtbfrzc+kKeC08ImkgAJkAAJGBGgEGwEg5sk4GMELM0w092L1a1b1+u1CloF+9hF5+LqNinWRObNmOd31sDA5FIhGCM9efPllclbJ0v+4PwuPg3MzlYC/SP6S5lXykjkoEhbkzAeCZAACZCAnxPQrTEmTJjgNT7Y/Bw5m0cCJEACJOAEAQrBTsBjUhLwMAHdyGD79u1iOsOsSZMm0qxZM+XvF2tM+UqAmF2zfk1aBfvKCXNhPeEbeHzn8X5pDQxMLhWCkeGxuGNStUZVWXVmlWQIyIBdDB4ksClqk2ydt1W2bdpGFx0e5M6iSIAESMAbCegLcJjz91u/fn2ri715Y3tYJxIgARIggdRDgEJw6jnXbKlvErC0qLA3u3ywlzSsgkvULSG1ImrZm5TxfZhARPEImTt9rl9aA+O0uFwIRqaTpk6S6NXRMm3rNHxl8BAB+DBpW6atnIg7wQV6PMScxZAACZCAtxHQ/f2uXLky0WJvvmqN4W18WR8SIAESIAHPEKAQ7BnOLIUE7CGA58xdu3aZXVTYH40MYBX8epnX5fOzn9PQ0Z4LxYfjwrhy+/zt8uXWL324Fdar7hYhGEVWqV5FStUvRX/B1vm77KjuF3jVilV+O2rhMljMiARIgAT8iIA+FQ/+fvHv8uXLhtbpi72VLl2as0QMVLhBAiRAAiTgCwQoBPvCWWId/Z1Acs+ZNWvW9DmXD/aes0FDB8kV7a/9oPb2JmV8HyOA671ernpy8MBBr/dh7QxatwnBur/gkStHSonyJZypI9PaQKBL9S5Sq0It+gW2gRWjkAAJkICvE9D9/W7evNnsYm8NGjSQ4OBgX28m608CJEACJJCKCVAITsUnn01PUQJw+bB161aZP39+onUldJcPeM4sVKhQqjEy0LWtOQfmSI6gHCl6bli4ewmM7T5WXn7uZRk6aKh7C0rh3N0mBKNdMKPPkyePrDm3hjeMG0/07KGz5fs938uWjVtSTWfsRpzMmgRIgAS8koClh3J99eXw8HC6BfLKM8dKkQAJkAAJOEKAQrAj1JiGBBwjYMm1WLVq1aR169ZSvXr1VP2cuX7DeunZp6cs+noRNRfHLjGvTwVXq+3KtJOLFy76/Tl2qxCMMx27N1YahDWQ6GPRkjkws9effF+rIEVgXztjrC8JkAAJ2E4AA6rr1q0z64etZ8+eEhISkqofym0nyZgkQAIkQAK+RoBCsK+dMdbXlwjAyvXo0aPKrdjkyZMTVV13LVaiRAkJCAhIdCw1f2kU0UiK1y3OheP+z95dwDd1fXEAP0A7pLjboOhwZ7gXL1qsuP4Z7u4+HIoOGG7FCqNjuDuMQYu7U4pD0Rb433O7lyVN2iZtmrwkv/v/QJP37rvvvu8L+6cnJ+fa4YuAS0K0LtrarheI075tMR4I5pMhGKxNbr7HXMTaq6+XQ3xiYT41jAQBCEBAvQL8JuTKlSvk4+NDCxYsMFjvF2/K1Xv/MDMIQAACEDCfAALB5rPESBBggYi+Xebh4UEoLRbx64SD51myZaHfT/6Ob7xHTGVzeznB8tWVV+S9ztvm5h6VCVskEMwTmzN3Ds1ZNIfm75uPzOCo3Kkwx5w/dp6Gegyli/4XkQ0WxgZPIQABCNiSgPYiHNoZGUodtipVqhAWe7OlO4q5QgACEICAOQQQCDaHIsZwZIGIEgxQ8iFqrwwuEdF3SF9a+fdKuy8fEDUh2zvqpv9N6lm1p0MlWFosEMwvhzFjx9DcBXNRJiKa/za853rTivErEASOpiMOhwAEIGAtAWWxt5kzZ+oswqHU+61QoQIWe7PWzcF5IQABCEBAFQIIBKviNmASNiagvMc0tKBwkyZNiP8gwSB6N7V7r+70Qvyv/+z+0RsIR1td4OP7j9QgewPav3u/Q/3uZdFAMN9llImI3mudU9aPbTpG+/ftRyZw9ChxNAQgAAGLCvDX8by9vQ3W+8UiHBa9FTgZBCAAAQjYgAACwTZwkzBFVQgo7zG3bduGBAML3BHOtM6QMQMNXTqUytYqa4Ez4hQxJdCtajfyrOdJvbr3iqlTqHJciweCWYGDweXKlqMlR5dQoTKFVAmjtknxf2yWTVxG149cp91/7cbXENR2gzAfCEAAAgYEwluB2dPTk1q2bEmc+YtFOAzAYRMEIAABCDi8AALBDv8SAEA4AkpZsX379umtKaG8x8SCwuHgmWkzB99Tp05NewL3oPSpmUwtPQwnWXJ8bf+e/ZY+tdXPZ5VAMF81/3LsVtWNes7oiVUXI3kZcLp6//r9KYH4H4LAkWBhNwQgAAErCihvzDds2CBXYQ4ICJCz4Xq/+DqeFW8MTg0BCEAAAjYngECwzd0yTDgGBZSSD6tXr6Z169ZpzoQ1JTQUFn+gfNvd94EvEvUsrh+9Eyprbj16+Mgh753VAsF82/hTlMaejSle6ng0ZuUYh7wBkb18uXB192rdafiw4Q6Xrh6ZDfZDAAIQUIOA8sbcUC22Ll26YAVmNdwkzAECEIAABGxOAIFgm7tlmLCZBe7evUu+vr56ZcWUNSXc3d3J1dXVzGfFcKYIjB47mnYe2Umz/5qNeJYpcFbsqywOd9H/osOWW7VqIJjvPWdPjZ84nuYtmEdLTyyl9K7prfiSUNeplUXh9uzZQwXyF1DX5DAbCEAAAg4swB9k8n+bly1bZrAWW9OmTR32jYUDvyxw6RCAAAQgYEYBBILNiImhbEIgvG+W8eSVkg8oK6a+W9mjZw+68fwGTVg7QX2Tw4x0BF49e0WeBTzJZ5MPlS3juPWdrR4IVu4Kp9U39GhIvWb0cvhSEdqlILZv3Y76kcqLBD8hAAEIWFGASxodOnRILyvDzc2N+vTpg3q/Vrw3ODUEIAABCNifAALB9ndPcUX6ApxccObMGZo5c6ZOcoFS8qFBgwaUO3duZJvq06lmCwfwq9WsRjnL5aROIzupZl6YiK4AgsD/eagmEMxT4v8Idu3VlS5cvEDT/5jucNnB/B+QvRv20vAWw2nVmlXUsnnL/+4UHkEAAhCAgEUF+L/JV65cIR8fH72FOHr27Clr/hYqVAgf1ln0ruBkEIAABCDgKAIIBDvKnXa864wouaBevXqEb5bZ3msCwWB13zMlCDxr+ixq0byFuidrgdmpKhCsXO+fO/6k9u3bU+WmlanbxG4U3yW+sstuf3KdkpEtR1LBvAVp2eJlCCzY7Z3GhUEAAmoW4Hq/58+flwu9eXl5aaaKrAwNBR5AAAIQgAAELCKAQLBFmHESCwhov7/kBYWVxYT51JxcUL16dXyzzAL3IaZPgWBwTAtHbXwOAg9vPpxqlKtBo0eOjtogdnaUKgPBbMz/iLh28Pz582W5CLcmbnb5dQguAzG+03j6Z/8/tHnzZoeuU2Jn/7ZwORCAgI0IKIu9hf1KnrIQB9diy58/v41cDaYJAQhAAAIQsA8BBILt4z466lVEtJ6Eh4eHXEwYJR/s79WBYLC67qmSCdytSzcEgbVujWoDwcoceaXMAUMH0MEDB6n39N5kLwHhx3cf07yh82QAePqM6dSsSTO7DHQr9xE/IQABCKhJgN+ce3t7G6z3265dO6patSoWe1PTDcNcIAABCEDA4QQQCHa4W27zF8wlH7ikGCd4+fn5aa6H15PA+0sNh90/QDBYHbdYCQKPHDaSenTvoY5JqWQWqg8EK04cEB40ZBAdOHDApjOEOQA8f8h8OnfgHCEArNxd/IQABCAQ8wLKm/MFCxbofCUPqzDHvD3OAAEIQAACEDBVAIFgU8XQ39IC2iUftEuK8TywnoSl74a6zqcEgz/QB5r912wk/Vn49nDcrX2p9uSzyQffujdgbzOBYGXunMU1Z8EcGjdqHDXr2Yzqd6xP2fNnV3ar8ieXf/j70N8yAPz66WuaMWMGNW3SFP8xUOXdwqQgAAF7EeA3YKdOnZL1frXrsXG93yZNmsg/JUqUwH+L7eWG4zogAAEIQMCuBBAItqvbaTcXo3yrbNu2bbR3717NdXFJMaXkA0qKaVgc+gH/LsLlTnce2UnTtk5ziLWv1HDDzx87T0M8htCWzVsQBA7nhthcIFi5Dv707eChgzR1xlS6dOkSeXTxoEZdGlGyVMmULlb9yf/oL566SJvmbqKd63fS8DHDqUmDJqgzadW7gpNDAAL2LqDU+129ejWtW7dOc7nai73hzbmGBQ8gAAEIQAACqhVAIFi1t8ahJsa/11+5ckWWfAj7rTIu+dCnTx8qXrw4Soo51KvCtIv1mutF4yaMo6UnllJ61/SmHYzeJgl4z/WmFeNX0EX/i/g3GYGczQaCta+JP5Vb572OJoyfQN9ifZNB4eJVitNPhX6y6KcunH7ud9yPjm4/KoO/ldwq0djRY6lkiZLIONO+YXgMAQhAwIwC/P8Be/bsoWXLlullZnTq1ImaNm2KNwJm9MZQEIAABCAAAUsIIBBsCWWcw5CAkliwa9cu0i75gG+VGdLCNmMEjh47KjPGe87oSTWa1zDmEPQxQYA/sOlVsxclEP/bvnU7ubi4mHC043W1i0Cw9m3jgMDpM6dpx64dtMl7EyVLnYwqNqpIP2b/kQqULkCpM6Y2S1CWC0+/CHhBN/1vagK/FapUoAb1G1DlCpUJK4Bq3xU8hgAEIGBeAa73e+jQIYOLvXFmRoUKFfAGwLzkGA0CEIAABCBgUQEEgi3K7fAn4zWJfH19yVDJB04s4PeW+FaZw79MogXAsapKVSpRxnwZaczKMWaJS0VrQnZyMMfkulfrTt26dKPRI0fbyVXF7GXYXSA4LBf/Yztz5gydPHuSLl+9TJvXbZZdSlcpTYlSJ5KlJPKVyBf2ML3nR3yPUKzvsejO5Tt0ze8a5SmQh/LmzUt13OtQ1sxZqVChQgg66KlhAwQgAAHzCET0tTxlMQ7U+zWPNUaBAAQgAAEIqEEAgWA13AX7nQO/t+S1JPbt20dhSz4oCwmj5IP93n9rXRm/7rhu8LwF82ju7rmqX+/KWk7GnJctNy/cLEtB8LdDC+QvYMxh6CME7D4QbOgu8wvm4cOHctfly5fp9evXFCL+Z6jFptD/8ad/iRIlksHeVKlSGeqKbRCAAAQgYEaB8FZi1q73i29fmBEcQ0EAAhCAAARUJIBAsIpuhp1MRSn5EN5aElWqVCEkFtjJzVb5Zfj5+1HVqlWpQdcG1G5oO2QHm3i/uCxrv7r9qFC+QrRs8TIkZZro55CBYBON0B0CEIAABCwkoLxBnzlzpsF6v+7u7uTq6mqh2eA0EIAABCAAAQhYSwCBYGvJ29d5lZIPixcvJj8/P83FFShQgLjkA95bakjwwMICnKDYu19v8t7gjexgI+21s4CXLl1KtWvVNvJIdNMWQCBYWwOPIQABCEDA4gJcwsfb29tgvd927drJT8vxTQyL3xacEAIQgAAEIGBVAQSCrcpvsyfnQBGXfNiwYYP8ExAQoLkWLidWvXp1rCWhEcEDNQjw2iduVd2ocOXC1H92f1m+VA3zUtsczh87T4MbDabKFSvT0iVLkQUcjRuEQHA08HAoBCAAAQhETYDf8Pj4+OjVZMMb9Kh54igIQAACEICAvQkgEGxvdzTmrkdZFyjsN8pQTizmzDGyeQX4A4z1G9ZTqxataMCcAeTxiwfKRfxLzGUgJnSaQEFPg8j3D198O9QMLz0Egs2AiCEgAAEIQCBiAe3sDC8vL01nfoPepEkT+Qc12TQseAABCEAAAhBweAEEgh3zJcDJAvz+MLJvg3G/Q4cOGfxGWb169ahp06aRjuGYwrhqNQtwmbzJ0yfTwvkLqdeMXuTWxM1hA8IcAJ4/ZD6dO3COUAbCvK9aBILN64nRIAABCEDgXwGl3m/YBTm4JpuHhwc1aNCAeCFONAhAAAIQgAAEIBBWAIHgsCL2//zYsWPUtWtXunDhgt7F8vvK8+fPy3IP2kkF3BHfKNPjwgYbF+DX+6Chg2iD9wYZEK5QrwLFd4lv41dl3PQ5ADxv6Dz6Z/8/NGPGDGrapKnDBsONEzO9FwLBppvhCAhAAAIQCEdAqfe7bds2g4u9ITsjHDhshgAEIAABCEBARwCBYB0Ou3/CQeCyZcvSnDlzqHv37vJ6+X3lnj17aNmyZXrvK5FUYPcvCVygEOB/A3MWzKFxo8ZR5zGdqVGXRnZbQ5hrAE/uMpmcYznT0EFDEQCOwX8BCATHIC6GhgAEIOAIAhF9Na9Pnz5YkMMRXgS4RghAAAIQgICZBRAINjOoiodTgsA8RV7obefOnbR582by8/PTzNrNzY2wiLCGAw8cTIAzhH9f9jtNGD+BsuTPQp1Gd6J8JfLZfKbsq2evaNOCTbR5wWbKny8/jRs9jsqUKeNgd9fyl4tAsOXNcUYIQAACNi2g1Pvdt2+fwcXeuOYv6v3a9C3G5CEAAQhAAAJWF0Ag2Oq3wCITmDt3LvXo0UOeK3ny5PTy5UvNebnkA7+vLFSoELm4uGi24wEEHFmAPziZNW8WbVq3iZr1bCbrCNtSUPjj+4/096G/yXuGN926eEuWg+napStqelvwRY1AsAWxcSoIQAACtioQXl02rMZsq3cU84YABCAAAQioWwCBYHXfH3PMbuzYsTRq1Cidodq0aUP9+vXDOhI6KngCAX0B/v3s4KGDNH3mdDqw94AMCpesXpKKViiqunrCN/1vyuDvtsXb6PXT19SlaxfyaOCBf+f6t9UiWxAItggzTgIBCEDA9gS4JtWZM2do5syZenXZOnXqRO7u7uTq6mp7F4YZQwACEIAABIwQ4EAkGgQgAAFTBL5//25Kd/SFgFkElKSdnft20qL5iyhZ6mRUuFJh4sBw1jxZKb1rerOcx5hB+Nujd6/cJQ7+Ht1+lHau30kVqlSghvUbUl33uvj90RjEGO6DQHAMA2N4CEAAArYkoCz2tnjxYtRls6Ubh7lCAAIQgIDZBTgQ/OgRgjpmhzVywAwZ4G8klV10+/DhPd27d5uuXvWnc+dO0YsXz2jcuNmUIkUqm7k+fs0iEGwzt8uuJ6ok9Jw8e1LW277sd5lKVylNmfJmkrWF02ZOS6kzpJYLz8V3iR8li8d3H8vj/I770ZuXb8j/mD/9feBvevb0GTXybERlS5elyhUqU+7cuW2+lnGUgFR8EALBKr45mBoEIAABSwjwYm8+Pj4G6/1Wr14di71Z4ibgHBCAAAQgoDoBBIKte0sQCLauP85uugACwaab4QjLCdy9e1d8uPmIbosPXHhRxoBnAXRk/xEKfBooJ5EqTSoqWbmkZkJfv3+lOLHiaJ6/CHxBx/cd1zyv4FaBUqdKTaVLl6ZUyVNRgfwFKGvWrKjnrRFS7wMEgtV7bzAzCEAAAjEioCz2tmHDBvLy8tKcQ6n3W6VKFSz2plHBAwhAAAIQcFQBBIKte+cRCLauP85uugACwaab4Qj1CHB5Cc4kjqihLGBEOrazz8l2poqZQgACEIBAVAX4/9gPHTpEq1evpnXr1mmGKVCgAHl4eFCDBg1QrF+jggcQgAAEIAABCEAAAhCAAAQcR8DFxQXZvA5yuxEIdpAbjcuEAAQcT0Cp97tt2zadxd7c3NyoXr161LRpU0qVynbqrjneHcQVQwACEIAABCAAAQhAAAIQgAAEzCeAQLD5LDESBCAAAasLcL1fzvw1tNhbnz59UO/X6ncIE4AABCAAAQhAAAIQgAAEIAABCFhHAIFg67jjrBCAAATMJnDs2DHat2+fwcXemjRpgnq/ZpPGQBCAAAQgAAEIQAACEIAABCAAAdsVwGJxtnvvMHMIQAACUiBdunQUEBBAymJvqPeLFwYEIAABCEAg+gJYLC76htEZAYvFRUcPx1pDAIvFWUMd54QABEwVQEawqWLoD4EoCPAvEoZa0OuNoiB7PL1dsZzr6G3jDd+Dt+ttN0ff4I9byckpjlFjW3rOPClD12jvc+brNuV+37mxhFxd0/Bhot0jCrln0I33GrRzcuddaBCAAAQgAAEIQAACEIAABCAAAQjYqQAygu30xuKyVCgQ4qvCSWFKEAgV4GD79+/fwQEBCEAAAhCAwL8CyAi27ksBGcHW9cfZTRdARrDpZjgCAhCwvEBsy58SZ4QABCAAAQhAAAIQgAAEIAABCEAAAhCAAAQgAAFLCiAQbEltnAsCEIAABCAAAQhAAAIQgAAEIAABCEAAAhCAgBUEEAi2AjpOCQEIQAACEIAABCAAAQhAAAIQgAAEIAABCEDAkgJYLM6S2jiXwwqEhIQQ/rE57O3HhUMAAhCAAAQgAAGzCty4cYX8/c/JMUuUKEcZMmQy6/gYDAIQgAAEIAAB+xRARrB93ldclcoEnJ2dVTYjTAcCugJBQUG6G/AMAhCAAAQgAAFVCpw9e4Lmz59CDRu2IA4CV6qUj549e6rKuWJSEIAABCAAAQioSwCBYHXdD8wGAhCAgFUEXFxcrHJenBQCEIAABCAAAdMEfvjhB0qWLIU86OPHD/T161cKDg42bRD0hgAEIAABCEDAIQXwbXWHvO24aAhAAAIQgAAEIAABCEDAFgUKFChK/Of9+yCaPHk4bdlyiNKnz2iLl2Lzc/b3/4c+fAiSmdk2fzG4AAhAAAIQcAgBBIId4jbjIiEAAQhAAAIQgAAEIAABcwv4+m6iXbu2UZw4cShWrFhy+G/fvhGvDzF+/ByRuZtc55Rdu3rSDz/ElX2/f/9OWbLkoF69hmn6vHv3Vmb3Jk8emvGr2WHgwb59O2jQoAmUPftPBvZikyUE2revLzKyQ+jcuUeWOB3OAQEIQAACEIi2AALB0SbEABCAAAQgAAEIQAACEICAIwrUqFGfKlSoRps3r6Zhw7qJwG9K8vU9SWnSpKP48RPokXh4tKLWrWtT2bJVqEePoZQ/fxFNny9fvlD58rno7ds3dPr0XUqRIpVmn6EHGTNmVlUQmAPbSjDc0Hytue3hw3t05MhezRTy5SusY6/ZEeZBYGAA7d//F33//k3uyZo1pyb79/JlP3r8+D41a9Y+zFHqePrq1UtauXIBBQY+kR9MODk5UYsW/6M8eQrQnDmTqFu3QRQ79n+VIh89uk9nzhwT2+JQxYrVKXHiJOq4ECNnwXWyt2xZQy9fPpflUoYPn2zkkegGAQhAwLEE/vsvv2NdN64WAhYV4DfGaBCAAAQgAAEIQAAC9iXAwbVEiRJTyZLl5YVxcNbVNZvBIDB3CAh4RH36jCRv770iGFyZkiRJqgHhrOJEiZJQwoSJRIax4Xwdrge8ePEsqlq1EAUFvdMca+0HJ08epj/+2GDtaYR7/njx4lOGDJlp2zZvmjhxCM2YMTbcvto7xo7tT/36tZdZ32nTZqB06f4rwXHgwF+ya7t2PbQPUcXjgwd3iUzz1uJ1UocmTJgrSogspCFDJtHvv3uRl9dE2rvXVxME5tcUm8yaNZ7KlXOTr8vevduq4jpMmUTcuPFkhv2+fX/S1q1rTTkUfSEAAQg4lIDhdxgORYCLhYA6BDZtPkbb/jgp3vjH1mRThH618BvNmd2ZkidPpDNRzxZTKG5cZ81XC3NkT0/DhjaVfRp4TKAnAS/p+fO3NKBfQ+r8v5o6x5r65OXLd5QgQVyKF+8HUw81qv+HD5+oUZNf6fmLt3LOs2d2ojruJYw6NmynJ09eijfpul/DDNsHz/UFOIMHH1jou2ALBCAAAQhAwBgBJRNW+WnoGM5W5P39+48xtFuWl9i/319mM8aNG1evj7//ORo5sjcVLFiMRoyYSsuWzaFNm1bSqFHTI80e1hvMzBs449bZOWbeJ5pjqilTphbZ1m509Og+4uD9/fu3Ix2Wg8bKonzDhk2mHDly6xzDmcI//1yO8uUrpLPd2k+uX79M48YNEEHvY/JDBWU+/AHDmDEzxYcWWah5807KZpo6daTMBPbxOSy38e8fhl5/mgNU+oAzmKtVqyOy6Y+IQPA6lc4S04IABCBgfQEEgq1/DzADCEiB+vVKUrWqhWn1mgPUredCSpkiMZ08Nk0ENZOJIGw8PaVWLStT7bpjqEqlgjR0SGMqUjibps/K5X2IA8vtO3nRp0/RW0X61KlrVK/heBoyqDH16llXcw5zPuDrW7dmAC387S8aPGwFffkSYvLwX74EU/uOs+ngIX96eG+Fycdb64CY+hrl0aOX6MjRyxTw9BUVL5aDWraoZK1LxHkhAAEIQAACDi+wbt1SGeht3rxjhBYcpOQ/YdvZsydEiYIdtGTJZk3Qt3z5qsTlCaZPH02DB0+06lf5d+7cSnXqNAk7bVU958xXzrrOnDkbnTp1JMK5PX8eSJ8/f6IHD+5QqlRp9YLAXMv57NnjNHfumgjHscbOAQM6Uffug3WCwMo8OBhcqNDPVKpUBbnp6dMnskxEx469iF+jnz59lNfcrdtg5RCb+8mlLdAgAAEIQCB8AZSGCN8GeyBgUQEnpzjiDXwCKl8unzxv5sypKFu2dAaDwNzh0aMXNHJ4M9q7ezxVFsHgpEkTauabKFECcqsS/eyEjZuOUk33UdSrR13q1rW2ZvyYeJAkiYu4jgJRGvqFyCR2qz6c7t4LpD07x0dpDHMedO3aQ6rsNpS6i4D+27cfIhx63Pj19FQEa83dMmZMKV4TLuQ1dzu9ehVk7uExHgQgAAEIQAACRgqOGfAmAABAAElEQVSsWLFAfKsqHjVp0sbII/S7FStWigYOHKcJAis9uN7rxInzrBoE5rIQe/ZsV6ak2p+XLp0X2buFRSA4K334EEQvXjwLd66bNq2iBg2ay4Bx6dL6H6ZzvWHOMq5Zs0G4Y1hjBweo//77JBUoUCzc06dOnZaKFy8j9//99wn5wUOXLgOoUaNW1K5dN5F1Pk11Wc7hXgx2QAACEICAyQL6HzebPAQOgAAEzCnw74LTmvIQhsZes/ag2E80ZlQLQ7vlNu3FH8LtFMGOSb9upD17/6FTx2eILIj0EfQ0366ozPnGjcfk2XIKtW9blbr8UitCN/PN1PBInJX862Sxeviec9S3d326ezeQKlcdKrOpPRqGvuEOe+S9+4FhN5nluatrGs19q1ghv1nGxCAQgAAEIAABCJgmMH/+FOLashxUjKjxAnG8gNeLF4EyQDlixDS9heD4W0Rr1iwWGZt3RWA5Pr1790YG9LSDkRs3rqR//jklSm0Fyn2dOvWmv/7yEaUQ7tC9e7dkDeLOnfuKkmMpxfFvRRbo7yIo+l4kGNynwoV/FiUDOkY0TZ19T548EvWKZ9LatUvEYmTBokawN127dlH2SZMmPbVp00U+XrZsntzOi3nVq9eMKleuSUuXzqE3b8S3lkRAkhfcU9rr169oxYr59PFj6Afp/fp1lIuaZc2aQ+kS5Z/Hjx+kxo1by0xeHuTevdt6gXXefvjwXipTpjJdveovPtB/TaVLV+TNOo3LQrRu3cVg9rZORws/4fvMC9vxfciWLafBs1esWEOTLfz69UviutZp01rmvb7BCRnYyK91/hOV3w0MDIdNEIAABCCgJYBAsBYGHkLAFgSWLtsj6wh37FA9xqa73feUyHJITPv2TLBqYDWyC+QaZnPmbadtW0aIBUBSRNY9xvePGLWaKlUsQCNHeGrOxZnUfM+Wr9hLbdu4abbzg5CQr/TnjrM0cXxrne3mesJlMlKI2tL58mU215AYBwIQgAAEIAABIwV4QbLp00dR166DIj2CA7tVq7rTwoXT5UJe/fqN1jnm/fsg6tKlGaVP/6Nc/ItLHHCwtGbN4rI8RL9+o2R/DuZy8KxPn3Yy2PvbbzNkGQAOFnNgrX37+tSsWVURAN5NCxZMEwuKDZOL3XFQt1y5n4gDg127DtQ5d3hPuMyAh0cr+umnfNS3bzsqUqQEcZCRG1+P0kqUKCffT65atZCKFi1JkyYNpUGDxsvrWb58Pl258op++OEHGZAeNqy7rHnMWatz5kyUWdTVqhWm2bNXUO3aHsqQUfrJGcApUqSSpSF4AK4TzHPWbmx669Y1mRnLdtxKlaoof2r/deLEQbH42nHtTap4nCVLdnJxSUTDh/cgfp/s5uYus9G1J1e37n8lPEqUKC/rTn/+/FlTF5hfJ7NnT6CWLf8ns561j9V+fPHieVFzuK/80OHHH13FQnQ+tH79Uvk640D0mzevRa1iL7kgorf3Mll2gktRsPvo0TOJ73HYduHCWbGQ4jIZnOb5P378QGQqt9a7T8px27dvlFnb6dJlIP7wgRdbNLWtWvWbPA8vvjh27Cz5AYGv70bxmowrsqtPyPvftm1XU4dFfwhAAAKqFUAgWLW3BhOzJwG5EFdw9L8yt2DhDvFmKgE196wYozxRXagtRidlYHD+RcdrVmcDe6yzafKkdnon5gX2unYxXFZj6rQt9DTwtd4x5trAgeAK5fOpOphvrmvFOBCAAAQgAAE1CcycOU5k9OYSgbQ0Irg7jWrVaigzbsObIwdCf/65LPGia7t2bdXrNmPGGJHleYkWLdok69xyh/jxE8jFv1q2rCUzjjlrls/Jf6ZMGSEWzToqgst1RJmAonI8fj9apUptEYTtTP36daB589aKoGFoaTEOpOXNW1BmHBsbCE6UKLE8hssscMuY0VU+l0+0/uLyFfxn7Nh+YgEzb/LyWilLWfzvf31E8NlNBoG5++7d2+nQod0y+KZkOXMQmTOGBw/uIn9yADwqTakPzMdmypRFDsEZwWHb+vXLRKA89P0cB3tTp05nMLN2/fo9BrOJw46nPOfg6uPHD2W2rrLNmJ98zzjAaahutKHjEyRwEfd+kViQsCN17txYBuR5QbsKFaqJ62ovyoYl0zmMs4Z5ITxeXK5SpRp0+/Z1+QFDw4YtIgwC8yC8SN7q1X+JoHk9UYbsBf3223Rq0eJ/YoG90EWbGzWqJMqZ/E8sTleeqlevJ4O7fBy/9tq0qSMy1c/wU03z8VkrM8VXrPAVH2KEJnhw1jp/eNGkSVuZza3pLB7whx28f8GC9WKhQme5i1/zppQpOX78oJwXB72zZIkng9N8r7p1GyT/nT1+3Fhkrf9IxYqVRrkMKYy/IAABexBAINge7iKuwSEEpkzdLLNeoxIE/vw5WGalvn79nrgUwU85M1CP7nXEm0r9N9P86fuixTvp8ZOXMqOEs1azi1rFYbNZFXSuh7tMZLs6OzuJN2MfRDaBMw0d3EQErF2ULlH6eevWE9q85bhYOfubzJwtUMCV6tUtqTOWz1axcMqBCxQY+EaWQRg/tpXO/oiejBy9mp48eUXPnr2Ri+CVKZ2bli3fKzJh3tP1G4+oUMGsIoBbS74JvHnzMW3cdIw+fvpMAQGvZCA+vHILu0VZiD17z4tfzn4QtX9fU8ECWajz/2pofmnjOfECfHPn+9KatQfFM6Jfp2wSX9ELzZzhedSoHvoLm9wZxb8+fPgkfgG8TjOmdTRqBH7TiwYBCEAAAhCAQPQE+P9POQhbsWJ1GdjlAFXHjg2pd++2ItD5jybrMryzxImj/+sZZ+suWTJbBNy662V3lixZQQbBtm1bLwJjIzTDcuAwMPCJCPzW0mzjBzlz5pHPf/wxiyYIrHTInj03cUZmTDW+tm/fvooM4rzyFByc5D9K42xdzsjlP9qN6/r6+Kyhly+fi4Xb0mjvMvqxv/85yp+/iOzPwVIO0HNmqnbz9/9HBH1/kgF2fj/MtY85cG6ocQasKY0zW5UsXVOO4769eg0PNyPW0Fj16zcTC8IVF0Ha34hrGfOfw4d3y0Dtrl3n9DJxuS7wp0+fxPvih8QLECpBVUNjh90WN25c+cEDlxgZMmSSJgjM/XhROi4dwoF8Lj+htMKFS8jMYS5fwnWWuXGmMAf7+UMCJQjM2/nDBl74rlOnRrJcR/r0GXmzLEfi67tJfGjwUGe+/GFK0aKl6ODBnbJfZH8dPLhLZqe/evWSgoO/0PnzZ+SCjByA58avSaJYdOPGZQSCpQj+ggAE7EFA/52GPVwVrgECdiYwdtw6GjV2LQ0a4GHylX348JlGjVkja9amTp1UfE3rPeUv1J1u3wmgObN/0RkvUGSneraYSrVqFqOxo1tq9v06eSPVqTeWVq/spxPgvXTpnlyMbK7XLzIQzAdwbeFceX+hwwcma2rUagYy8gEHUrm+bo/u7uLNeFzxVcFP1H/gUhk4/X1xT/GmMIEciYOswcEh1KrNDKpWtbCRo4d2q1WjGG3bfoqWLN1NDeqXot17/qE+veqJN8f/Gd0UwWjPpuXpxMmrNHhQI5lZu3XbCXKrNpyOHPxVfFUst845V63eL3w/0NTJ7eV2DsA3bvorrfM+TLv/GiuvhXf8+GNK6t+3obSct+BPcq9dnFKmCP0qW6pUiXXGNPbJjr/Oims4R+nTpZBfBSxSJBsFiyB+eAFrY8dFPwhAAAIQgAAEjBe4c+eG+Dr+PE3gjjNbuS4uB2qnTx9NQ4dOMn6wf3teuHBG1uBNnDipeH90S+/4FClSi+039bZny5ZLb5uTU2jmJGcNh20cAAwJCQm72azPOdAaXitXrooIuL3TqQvLC59x/WJuXLYiqoHgEycO6SzWxwvGcT1dpXHG8PHjB0QWbV+5iReW4xrMhuoDK8eY8jNDhky0bNk2Uw6JVl9X12wi8DxFjsEBdF6wkF9/48cPlMHWsIPzYoZcViIqjYOmnz59lFmz2senSZNOvm45MKvdOMOZG9fFVgLBK1cuoM+fP4n60bofXHC/smWriMSQr8SlRbikCLdZs8bLD1sSJ9YvBaFkucuOkfzFpUo4y5zranPjhfKUIDA/v379svj7u04gm7ejQQACELBlgdi2PHnMHQKOIDBu/HrKlSsjpREBymnTfWSWpynXvVIEJ3v3DA1w8nGcqVu2TB5Rs3Yf8eJm2q1zl3nik/yE1K+v7grIgwc1Fn1DqG//JdrdRX1eX9q3/4L4GuNzzfZBAz1kUHjw0OWabaY+4AAqz4GDwNwSJIhH8+Z0oStXH9DAwcvlNv4ra9a01KRxOfEVP/603rRWsmQu+uV/NeVBi5bspF496sogMG9QjH4XQWIfEfjtIxZ+U94UKtm6S0X2cNjGmb2btxzTbObs6BnTOtDRY5dpye+7NdvTp09BBQtmoXRpQ7+ely9vZvmct/E+U9uMmT6yBvH0qR1ooPiwgBem69VnsQgu81c2M5k6HPpDAAIQgAAEIBBFgaxZc2qCwMoQ48fPFZmFqcVX2KeKgNNpZbPRP7lmLTcO6HHGbtg/HPDr2LGX3njx48fX26Zs4LIShhovNBaTjRepi6jxYnFcn7ZevbKyW1DQW1lGgp9wlm5UGy/CF5rdGTpC5szZZC1YZbxNm1aJesctlaciKHxQPjZUH1juUOFfwcG67+uVKbI5Z4vzBxJc8zYmGp+Dy5toN+W9My+WqN2U7dr38+LFf2R9X0PZyByo5XITnNXN7eXLF+LDgXuULl1G7WGj9JhLVnA7dmy/SNTIIupHZ9UZ5+jRfSILP4F4n15cZzueQAACELBlAQSCbfnuYe52LcBfLQxdfCy/DHYumNeVvoo3wG07zBSfmBt+o2cIJG+eTGIl4NCAo7I/T+4fKej9J7Eq9TtlE+3dd562/nGSWjSvqNmm/cCzWXni4OeZM9c1m9OnSy5LK4SE/PfGnOv2cqbu5SsPNP1MfVA6TKYtH89vGls2r0S/LfqL/Pz+y+DgfYZKXPD2yJpyXLq0yQ0avRfZ1CVL6GbMcM1fV9fUIovkmd7wadMko0BRakL7jW327GLhClH2IToeeifS2sBZyFNEreHFv/XQlJ/IkSO9CMbHEdnAqA+sRYWHEIAABCAAAasI8Ffdf/11gSyLwHVNeWEuUxovEMeN6+zWq9fU4B+l7IEp48ZkX85cfvbsqd4pYsUK/9fPmzevitIEuYizqteuDf1qP5eOCBtI1Bs0kg2h9YF1vwjLAT8u1/DlyxdZl5kXt1OyU3m4E6I+MGeuct1lW2nTpo2KcKp58xbSucYIO5u4UwnuGjoson1Kf84OjqjxGJyhzU35Gd6HGRGNE94+Dvgayv7euXOrrJ0cNsgd3jjYDgEIQMAWBML/f2JbmD3mCAE7Frhx4zG51youvg4VWkeNyxc0a1JOZMU+pNGiTISxjbOJwzau58uN6/8qjTN7uXF2qqGWJ3doZikvQKa0kSM86dXz9bIEBAc/ec5Hjlyit6JW8MuX/wWZlf7G/owdO7QuV9j+hQplFV/OIjp0+GLYXdF6HpFRrp8M+2nbKSfft2cC+Z+fK7/S+OnTFxmwPnDQTwRoY0fLQxk/7M+goI80aMhy6tSxuk7Jjo8fP4sFZR6hLERYMDyHAAQgAAEIWEmAF4vjjEyuNcpf0TelKUFeQ4ubKeNwQFNNjTM8Hzy4a9KUuA4sB2NnzFiqU7+Ya7dqt337dmg/jfSxn9/fmgXzlM6ZMon3lCL7mRfn++OPDVS3bhNll/xAn+sDly5dSbMtug/YokqVAiLQndukPxUr5hVrSxyJ9PQcRP/6NSTCfrduXZX1cyPsZKWdHKR++/a1wdIkHMjnGr7chxsv9pcgQUKR0KKflBGV6XMW+qVLF8SidhV0DufF/c6ePU516oS+Nq5eNe/vHzonwxMIQAACFhRAINiC2DiV4wpEZSGunGJBtxIldOuocS3e1KmS0FSRAcoLgRnT4osM1vDat28cVg1t/v535YMECULLMfy7WfPDxSV0+4Uw2bjXrz+iLt3mU/WaI4nr54oP7MlFlHLQHlszSDQfJEsaurL1RVGb2JwtIqPwPLSzfrXnwoFyrqfcpt1MOnP2hswG5szj8PprH2vq45Wr9tMTsXhdg3q6i+gdP3GFvojayabUBzYmW8PU+aE/BCAAAQhAAAL/CYwfPydKJSK4nm/16vWJsxMN1fDlxeRmzRr334ks/IgXXuPGNV6VxkE9rmlsbAsMDBD1WC/JQCV/u0y7hdZpFZVa/13Y1pjAqPbxnO1ZsmR57U3i213Z5HNezKxatbqaEmC80dz1gXlMXlxu3z4/sWjbFZP+HDx4Sfw+UI6HiLAdP36QIgpU8sJs3KdDB/0SIqSCxh+S8Gub5xi2cTkLXkCQ+3Dj96x16jSWQdqwffm59uvQ0P6w206fPio2fdfLCN6500cEnF3k64OP2bJlTdhD8RwCEICATQro/r+sTV4CJg0BxxFIIWq+KiUi2nWcZVKJiMiUUokAMzfOZDXUPn0KLUeh9OM+GzYeoYJFehJnze7eOY4G9PeQGcxJkhiuO2doXFO2caYxNy5JocbWo9dCat5yGvXqWZe81w2iDu2riYUzcojSFcb/p/aYqCdsbDv7901KkjgBFS4c+suMctzBQxcpVcrE4iukoVncynb8hAAEIAABCEAgZgTevHklB+YAaHiN66hyAOvbt6/UvXsLgxmNHz4EycN58S3tNmnSfLF4bhDNmTNJe7NcRGvOnIkiwNdTZ/uHD+/p/fvQsbR3KNuUn4b2cQ1WUxoHVbkGsrLgFh97585NmbmpjMP1azlA9/TpY2WTzk+u35s8eSrxjaaLmoAvdwgIeCwWMcshvm0VRx7L2Ztp06bXOTaiJ1xygBciixMn9NtwSl/OCOaWOnU6yp5dN/Fi9+4/5L6ffy4rf9rCXydOHJT+hoLk7969pd6929LAgeMoQ4bQMiPmvKYvXz6LEhv65U6UbcpP5ZzK848f3yubqHjx0tSpU29atGiGzv3nMiozZ46jdu266wTEhw+fKhcP3L17u2YMfnDt2iURcN8h/q281xlHp1OYJ2yXIUNmvQXh+DVcpkwlsWZJfFmfWMnMD3M4nkIAAhCwOQHjoxM2d2mYMATsU6Bhg9KyRATXnDWlRERkGkX+DSbeux9osOvde6F13goXCg06Pnr0glq1mUHt2rrJwKd2RikvLKe0+2K8S2bK4H3wIPQrYEWK6AY+lXNZ8+emzcdo7vw/adaMTuRWJfSra8p8tD24VER4wXbuz4vTGds4M7qwKJehbc/HclYyZwPzdjZ7928A3dhx0Q8CEIAABCAAAeMEOEuwVavaIrDbUgSMXGTg0t29JLVu7S4Xd9MeZdy4AcSLkvHiU0+fPpGlApo1qyreF3ySC5d5elanKVNGyHG4lnCvXm00h6dJk4727LlAt29fp549W9O2bd60fv0ymjhxMP3yS3/NQmh8fN26pcX/97+ly5f9qFGjSrRixQL5vGXLWiIY+D85vpfXBGrRoiZxSQHONG7WrJoYf7vcV79+WZ1zayYRzgN+vzFv3lrau9dX/JwsFsWbJr/Gr9RVHTasO7HJDz/EFSXE9so5aV8bD8sLgq1a9aew+Ehdu3rKYB5v3759A3Xu3FcYd6YhQ7rSmDF9qX795rwrwsamHTt6UOXK+WRZAQ+PCrRmzWLNMexZtmwV6tZtkGbbrFnjhWVTWr58viw9MGJELxo6tJtmv5of3L59g3btOideE0tp5Mje0o8zXRcvniWCqPXE63MwNWgQuZsp18jlFLp0aUY7dmyRtZb59bRy5UL5b4DvITvyv4k2beqIjPXx8ttxXbs2p8mTh8vt/Brge6q00aNnUI0a9eWYq1cvIv7D96NmzQY0fryX0k3+5LrbfL2bNq0UpUTG0oEDO+WHJBwE5gxv/mCGX3M8n8gaL0JXqVINvW7163vKD2u2b98osrj3yA9x9DphAwQgAAEbFND9aNQGLwBThoAjCsyZ3Zn2H/CTJSIa1CtFP/+cM9oMvEjchEkbRHmHk1S5UkG98Xb8dZZcM6cmj4al5b4jRy/J8gNly+TR68tBauXre48fv6Snga/FLwSZ9fqFtyEo6L+vFmr32bDxqFiIzpVqVC+qvVkVj3mxPW5hPZ4+fUUvXwUJj9Bpnjp1jTjozovOpUkT+pVJJds6tIfxfydPllCnNjAf+Uqci8uGTJvSXg60YuU+6tunvvGDoicEIAABCEAAAkYLNGzYgviPMW3EiKnEfww1Xrxs3bpdhnZptiVNmkwEu1YRZ9feunVNZDFmokSJ2mn28wPO+uQ/htrq1TsMbRYZsblkAM7gTiM3litXRQR5r8vAMi9ux4E6pU2YMFd5GOHPQoWKi2DyBXr06AE9fx6agMBZotwmTpwnA7pJkiSVazFEOJDYGS9ePFqyZHO43Th47e29V2d/797DdZ7byhOuDz1z5jKZ0co/Obh/9uwJWf+Ys5o5m9bJyfy/9ufNW1AE/dcbZJo/f1042yNe56Rly/8R/7l//448nh+H1ziYv2jRRpn5ztm7bdt2E/8eEovXz31xzd0oWbIUlDRp5N8i9PJaJfuGPU/RoiXFa2iL/BCFM/nRIAABCNiLADKC7eVO4jrsRoADedxev/7v61JhLy5lyiTUuFFZ+ioWaGvReppYlVl/pV1eSIxb0Hv9oKqy7fnzt5qhkydPRIt/607rvQ+LXy6eaLbzA84w/WP7afp9cU+xeEc8uS9P7tCvlvlfvCufK38d4hq57j/LgCQvWvb4yUvKmiWtsjvSn3FEXTg//zsUKILH2m2Lz3E6dfoaLf+9DymL3Sn7+Vo/fvyiPDX6pzFGSh/tQXnbC7EYnhLs5n15/y3DENbjzx1nZQY3O3D7/DlYE7wtWSIXxRLb+Lq48XhKwFhuiOSvmjWK0aXL9zW9eOyJv24QXxP9Rj/9lEFu53udQNRsRoMABCAAAQhAwD4EnJ2dKVeufDLopaYr4uBrvnyFdILAUZkfly8oWLCY3qHJkiU3Kgisd6Cdb+DM6zx5CmiukgP7zZq1E5m4XaRjTASBNSeLoQe8IBz/Maa5uCSUrzsOAnPjD0jYgMuNcKZ5ZC19+owiQzm+wW4cbA5bOsRgR2yEAAQgYEMCsUTg4d88NRuaNaYKARsT4KyD78G6NazCXsKatQdp7bqDMrDHAVr+l5k/f2ZKKeoCL1/aW6yiHFrDl48bMGgpLVq8Uyyq8E18/Z/ELwLxKZ/IuN2+baTMNK3fcDxdE4u4cVmA+PHjUlFRSmH40KZ8KI2f6E3n/rklamd9lhmpP+XMSDt8R8t9/NeFC3do+MhVou5sVsqTOxOdv3Bbbps5vaP4pUO3rtjyFXtp1Ji11LpVZZkJe0VkAru6pqZaNYtRidL9ZNC4dKncNHlSW73yBZoTaj34W9S8XbREfLVLZDxP/HWjzEBOmtRFZj8/ePCcvGb9Tyy2kUpzxNhx62jHzrPk53dXZDrEIS4ZMWxIE6rqVljTJ7wHxhplzJhS1kDeumU4jRu/nnbu/lt68P3JmzcTeTYtT3161xf34isNHLyMtv1xkgb0ayjevKamc+duUr26JeXcylcaTOXK5pFB8nZtq2qmNW36FlqydDf179tA3rPWLSuL++6q2R/Rgy9fgsmzxVQxbl6RBZKSuFRErx51aeTo1fK1wbWUGzYoZVQ2diznOjqB7YjOi30QgAAEIAABRxDg92+PHuFXJWvd6wwZ4G8te5w3agL8mkV4JWp2OAoCELCcAALBlrPGmRxYwJhAsNp4OOv19u0AypEjvQwmhze/byIr+caNxzKwnDNnBk3GML8JeimyZnmBu6i2gIBXoobeaxGAzkhx4zpHdRiLHsdZ0DdvPhEZK7FEVm5GGQTmCQQHh0ijJElc9ObDWeB37z6V18mBe1MbH8tZwNmypdMc+vDhc7FadwL5R7MxogdO7hHtxT4IQAACEICAwwkgEGzdW45AsHX9cXbTBRAINt0MR0AAApYXQCDY8uY4owMK2GIg2AFvk1kv+aiooZwmTTIZSDfrwDE1GALBMSWLcSEAAQhAwEYFEAi27o1DINi6/ji76QIIBJtuhiMgAAHLC6BGsOXNcUYIQMDOBd6LuryV3IZSq7bT7fxKcXkQgAAEIAABCEAAAhCAAAQgAAEI2IqA+ZcPtZUrxzwhAAEIxJAAL6g3a0YnnVINMXQqDAsBCEAAAhCAAAQgAAEIQAACEIAABIwSQCDYKCZ0ggAEIGCaQLeuqLlrmhh6QwACEIAABCAAAQhAAAIQgAAEIBCTAigNEZO6GBsC/wpg9Vi8FCAAAQhAAAIQgAAEIAABCEAAAhCAAASsKYBAsDX1cW4IQAACKhHgBXHQIAABCEAAAhCAAAQgAIGYEwgJCYm5wTEyBCAAASMEEAg2AgldIAABCEAAAhCAAAQgAAEIQAACEICAqQJ3796luXPnUsGCBenUqVOmHo7+EIAABMwqgBrBZuXEYBCAAAQgAAEIQAACEIAABCAAAQg4qgBn/V65coV8fHxowYIFFBAQQGnTpiU/Pz9KlSqVo7LguiEAAZUIIBCskhuBaUAAAhCAAAQgAAEIQAACEIAABCBguwKc+dujRw+dC0iaNCl5e3tTggQJdLbjCQQgAAFrCMQSi1h9t8aJcU4IOJLA+/fvySXuAUe6ZFyrjQnEcq5D+L8DG7tpmC4EIAABCMSoAOrnxygvBoeAXQoEBwdTv379yMvLK9zr8/T0pFy5clH27NmpdOnSMkvYxcUl3P7YAQEIQMCcAggEm1MTY0EgHAH+ReJ78PZw9mIzBKwv8P5zJcIbUOvfB8wAAhCAAAQgAIFQAfn+WaU5S2qeG14/6hDYsWMH1a5dW06mZs2a1LJlS1kf+PLly7R3716DkwwbIM6YMSM5OeFL3AaxsBECEIiyAALBUabDgRAwXoDrRDk7O+sdEF4GZngZKIb6m9KXM5MTJkxo1Dzsac58wdG1iylnnpspY5vS15T7zfNAgwAEIAABCEAAAmoR4Pc8ht6/qWF+ap6bGnwwh1CBZ8+eUfPmzWXgl+sD58+fX0PD+65fv0737t0jX19funTpkqwhrOnw7wOuLVypUiWZOZw1a1bKkycPIUAcVgnPIQABUwQQCDZFC30hAAEIQAACEIAABCAAAQhAIMYF1BxsVfPcYvzG4AQmCXByzcSJE2nz5s104cKFSI+9e/cuPXr0KEoBYldX10jHRwcIQAACCATjNQABCEAAAhCAAAQgAAEIQAACqhJQc7BVzXNT1U3EZDQCx44dowwZMlBUg7UcIOayErdv36bjx4/TgQMHKCAgQDO+8qBAgQKUN29ecnd3p8yZM0frnMqY+AkBCNiXAALB9nU/cTUQgAAEIAABCEAAAhCAAARsXkDNwVY1z83mbzwuwGgBzjZ++PBhlALEOXPmlIvUGX0ydIQABOxGAIFgu7mVuBAIQAACEIAABCAAAQhAAAL2IaDmYKua52Yfdx9XER0B7QDx2bNn6erVq7Ru3TqDQ7q5ucm6wyVKlJA1jLkmcapUqQz2xUYIQMA+BBAIto/7iKuAAAQgAAEIQAACEIAABCBgNwJqDraqeW528wLAhZhdgBeS5kXquLTEzZs3TQoQ80J1Li4uZp8TBoQABCwvgECw5c1xRghAAAIQgAAEIAABCEAAAhCIQEDNwVY1zy0CUuyCgEEB7QDxqVOnZKmJvXv3Guzr6elJuXLlouzZs1Pp0qVl9jACxAapsBECqhVAIFi1twYTgwAEIAABCEAAAhCAAAQg4JgCag62qnlujvlqwVXHhABnD/OCdP7+/mSpADGXtXCinTqXE8u5js5z5cn34O3KQ52fhvoHf9xKTk5xdPrxE0N9ebuhsc3R15R5BL3eKLKw4/F0dJo55mHK9al5zgxjyEMtczbnPL5//67zOojOEwSCo6OHYyEAAQhAAAIQgAAEIAABCEDA7AJqDraqeW5mvxEYEAJhBLQDxL6+vnTp0iXy8/ML04uI6w1XqlRJZg5zaYk8efJQxowZRUDWSa+vskH+2wonwKv0wU8IOJoAB7sRCHa0u47rhQAEIAABCEAAAhCAAAQg4EACag62qnluDvQSwaWqTODu3bv06NEjunfvHkU1QIxAsMpuKqajCgEEglVxGzAJCEAAAhCAAAQgAAEIQAACEIgpATUHW9U8t5i6HxgXAlEVUALE//zzj1yo7sCBA7LkRNjxChQoIDOLDZUtCNsXzyHgSAIIBDvS3ca1QgACEIAABCAAAQhAAAIQcEABNQdb1Tw3B3yp4JJtUIBrAT98+FAuTHf79m2dADECwTZ4QzHlmBdwcjfbOVAj2GyUGAgCEIAABCAAAQhAAAIQgAAEzCGg5mCrmudmDnuMAQFrCch/W6gRbC1+nFfNAmYMBMdW83VibhCAAAQgAAEIQAACEIAABCAAAQhAAAIQgAAEIBB9AQSCo2+IESAAAQhAAAIQgAAEIAABCEAAAhCAAASiIfD9+/doHI1DIQABYwQQCDZGCX0gAAEIQAACEIAABCAAAQhAAAIQgAAEIAABCNiwAALBNnzzMHUIQAACEIAABCAAAQhAAAIQgAAEIAABCEDAPgViOdcx64UhEGxWTgwGAQhAAAIQgAAEIAABCEAAAhCAAAQgAAEIQEB9AggEq++eYEYQgAAEIAABCEAAAhCAAAQgAAEIQAACEIAABMwq4GTW0TAYBCAAAQhAAAIQgAAEIAABCEAAAhCAAARMFIgVKxZ9D94e4VGbNh+jbX+cpDhxYhP35/bt2zcKCflGc2Z3puTJE+kc79liCsWN6yz78mJ0ObKnp2FDm8o+DTwm0JOAl/T8+Vsa0K8hdf5fTZ1jTX3y8uU7SpAgLsWL94Oph6K/EDh9+joNG7GSnr94K+/JhXNz9O5nWKgtPsdp7jxfecyXLyF09dLCsF3M9vzt2w8UHBxCKVIkNtuY1hgIGcHWUMc5IQABCEAAAhCAAAQgAAEIQAACEIAABEwSqF+vJM2b04V+Lp6Tlq/cR75/nqGRwz1p8W/dDQYNW7WsTCtW7acHD55T61aVqVvX2przrVzehzp3qkG3bgfQp0/Bmu1ReXDq1DXKk78r/bZoZ1QOxzFCoGjRbLR29QDK4pqGHj56QRy4j6zVcf+ZVi7vS87OTvT06evIukd5/5cvwZQr7y+UKUt7evbsTZTHUcOBCASr4S5gDhCAAAQgAAEIQAACEIAABCAAAQhAAAIRCjg5xaHEiRNQ+XL5ZL/MmVNRtmzpRCZuPIPHPRIBxZHDm9He3eOpcqWClDRpQk2/RIkSkFuVQprnUX2wcdNRquk+inr1qKsTaI7qeDFx3IMHz6h+w/HUotU0CgyMuYBpdOYeJ04cSpUqCZUqmcvoYTgAnDFjSipUMIvRx0SlI2egJ0niQokSxSd+DdpyQ2kIW757mDsEIAABCEAAAhCAAAQgAAEIQAACEHAwgX+rQmjKQxi6/DVrD4r9RGNGtTC0W26LHTt6+ZGTft1Ie/b+Q6eOz6AcOdKHex5r7fj69asonfAnrVl3kLp3dReZz1+oVp3R1KVzLWrfrmqEftaac1TuSVSOMeX6OEjtf34uff36TZYaMeXY6PaNrFyKqeMjEGyqGPpDAAIQgAAEIAABCEAAAhCAAAQgAAEIqFZg6bI9so5wxw7VY2yO231PUcqUiWnfngmqDKjyhU+YuIFy5/6RTh6bRkqwlAPAa9YepNlef1DvXvW4G5oRApwJbOvZwHyZCAQbcbPRBQIQgAAEIAABCEAAAhCAAAQgAAEIQED9AgsW7hBf409AzT0rxuhk67iXiNHxzTH4yBGeesNwMLNN6yp627HBMQQQCHaM+4yrhAAEIAABCEAAAhCAAAQgAAEIQAACqhWQi4OF+EZrflOmbqYMGVJEKQj8+XMwcSbx69fv6d79QPopZwbq0b2OwSzQb9++0aLFO+nxk5cy0zYk5CtlF7WK27ZxMzj/a9ce0rIVe+WiZu/efZDlBYYObiLrzho8IJKNQUEfaeasbfTqdZDs+eVLCDX2KEMVKuTXO/Ly5fu0fsNhOU+eN7d2Yp5ZsqTV9D169BJt2nJMLIT2luLFc6bfF/eis2dv0OEjF+n5i7fSpHOnmlQwnFq8V68+kIv38T0MCvpEbVpVIT7X6TPXKVAsrhY7diwaO7ql5nymPti67QRdvvxAjsPlGbJnT0dNm5Q3OAzPe9/+C/Tm7fsI5833bLm4JzduPpb35eHD5+J1U4GqVS2iM+6bN+9p0uSNorbyG7lQ3LQp7emnnzLq9LGlJwgE29LdwlwhAAEIQAACEIAABCAAAQhAAAIQgAAE9ATGjltHo8aupUEDPPT2Rbbhw4fPNGrMGurbuz6lTp2UOPiXv1B3un0ngObM/kXncF5szbPFVKpVs5hOcPNXESysU28srV7ZTyfAe+nSPfKau53mev0iA448GNcWzpX3Fzp8YLLJtYV5vIaNJ1JPEaQeIRbC48YBWL7+gKevdAKkK1buo3kL/qTNG4bQjz+mkn3v3n1Kni2nUv++DcijYRm5LWvWtFS9WhHq3nMh/fCDM/2x/RR9/PiZ+vZpIPfPmOlDpcsNoCsX51OmTKnlNuUv3z9P0/9+mUu7/xpH+fJlpiciOF68ZB+qUb0oLVnUUwaU/xBlNKLTfsyYiho1+ZV4cUBelC9/PleDw2374yTxvRw0sJHcH9G8BwxaSo3E9SvlQwICXlHJMv2okQioT5vSQTN+/Pg/kHut4jR95lby3XGGRo9srtlnyoOXL9/RLK9tlCplEnr79gO9Fq8xXsiQFy20ZIteVWxLzhTnggAEIAABCEAAAhCAAAQgAAEIQAACEIBAGIFx49dTrlwZKY0I4k6b7kOnT18P0yPipytX76fePevJIDD3TJLEhcqWySMyRvfRly/BOgd37jKPkiVLSP1EIFW7DR7UWPQNob79l2hvpjnzfGWGKmecKm3QQA8ZFB48dLmyyaifwcEh1LT5FMqbJxN1E4u/KY23c8bxZJERrbRz525Sh05etFRk9ypBYN7n6pqGZkztQC1bT6cbNx7L7unTp6CaNYpR+XL5ZJCSs4i1M27da/9MH0RgeM3aQ8rw8idn1bbrMJsa1C8lg8C8MV265NT1l9q03vuwDAoXK5ZDJ2CuM4CRTzjzmbN1ecG2niIQnEdcf9jGC+FdufKAPJtV0OwKb94c9F20eJcM7Cqd06ZNRsOHNpUBX3//u8pmGRgvWzavDBBrNpr4gIPl5SsNpqaNy8ks82HiPBxcnjbDx8SRot8dgeDoG2IECEAAAhCAAAQgAAEIQAACEIAABCAAAQsLcCbsiFGrqVLF/NREBNkWzOtKX0VJgrYdZhKXejC2cWCVA4HaLY9YZC3o/Sd68eKdZvPefedpq8g6bdG8omab9gPPZuVp6fK9dEaURFBaehEYfSbKI4SEhJZl4O28cFvBAlnosghcmtK4HMUlEaTlzGXtFidObDn/YkWzazb37LOI8ubNpAnQanaIB6VK5Zb9+/RbrL1ZlsHgchccQNVuXIrBWdQWvnvvqfZmUa7hviwdkSN7ep3tOUVZjfciM/fU6Ws626PyZIvPcZlVvHJ5X0qQIF64Q3wS99vYeceN60yc6ctlQLRb4ULZ5NPLV+5rb5aPnZyiFkKVQXXPKbRQvDbz5s2sGTd58kQUL+4PmufhPYjlXCe8XVHajtIQUWLDQRCAAAQgAAEIQAACEIAABCAAAQhAAALWFOCM1nlexalEiZ/kNDgztVmTcqIm7hEaLcpETJrQxqjpcTZx2ObsHBoy46xXpXHtWW75tAJ6yj7+mSd3aKbqwUP+VLx4TrmLF2wbPqyppkbvrVsBxBmpb0WtYC4XYErjcbkVKRIasFSOjRMnDp08Nl15KsojfKITJ65Ss6aG6+hyx9y5fiQej2v5cmBaabHEg5w5dQO7vJ+DzdoW3J8zjWPHiiXKSHxRDpc/OTuXW9o0usF1udGEv2Z7/UHzF/5Jl/zmR3qUKfPmjO7AJ6s11/1aZBzfvPmE/C/eled5+TK09nKkJ42kA39Q0bT5ZCrxc07irGKlnThxhebO/5Nmz+ykbLLYz//utMVOiRNBAAIQgAAEIAABCEAAAhCAAAQgAAEIQOA/gffvdbMz/9sT/iPOPFWCwEovrsWbOlUSmjpti9ElIuLHCz8z89u378rQpJQMSJAgrmab9gMXl9DtF/zuaG+m69cfUZdu86l6zZHEC5+J2Cm5iOxW7bF1DgjnCWcD/yAC1BFlxvKhvLDaNxGEDG+e3Ifnylm7t28H8FNN44Av1wk21MLOlwOqVd0KEWdKa7cDB/2okFhYrqhWhrL2fmMejxy9Riw091qWr5g4aUOkh5gybx6Mg9orV+2nCpUH05BhK+UCgXw93JRF9eSTaPzFwfiLl+5T0qQuomTJFuI60lwf+o6o07zs916UUtQLtnRDRrClxXE+CEAAAhCAAAQgAAEIQAACEIAABCAAAR2BhAkT0vfg7TrbovIkRYrEskSER5NJ1K7jLDp3ZjZxKQBztFQiwMxNyXgNO+anT6HlKJR+vH/DxiPUqs0MmvJrO5o/t4sIAnPuKtch/lP+NOUvroF85epDUdIgSAQXQ4OWho5Xzh/ePPkYZa4pUyY2NITR29q2cRN1kLfLheYaNigls4yvicD3lo1DNYvjGT2YVsc2rarQzyKTlusuj5uwXi7Ox/WGzdHei5IfVaoNk4H49WsGEi+Wx+3atYfmGF4zhvKBwJhRLSh/flfNdms+QEawNfVxbghAAAIQgAAEIAABCEAAAhCAAAQgAAGzCjRsUFqWiOAavFwiwlytSOHQkgz37gcaHFKpoavUmn306IUMArdr60a9etbVBIH5YA5wKu2+GO/SpXvK03B/FiqUVe7jMgaG2tevoWUsMmdOTclFdmt48+Rjea5ZxMJxEQWUDZ0j7DYuL3Hs8FTq3rU2vXv3UbiXpyMHJ1OWLKHB1bD9jX3OQWBuE8a1kovDtWo7Q5Sg+Gzs4RH2GzRkuag7fFMGq5UgMB+gfU/4+Y6/zvKPKDelTjXXWFZLQyBYLXcC84AABCAAAQhAAAIQgAAEIAABCEAAAhAwi8Cc2Z1NLhER2Yl5kTjOyt267aTBrhw4dBVBWI+GpeX+I0cv0ZfgECpbJo9efw5Scw1Zbo8fv6SbtwwHd7UP7NaltlhgzJk2iwXUDLUJEzfQmzehJTb69WlAx49fpcDA13pdHzx4JksWDOjXUG+fqRtOnLxKr14FUS5Rc7he3ZIyaKtkPZs6lqH+XKZizcr+dEv4DB66wlAXk7dxKQtX19SUMWNKnWOVReL+vS3E9y86jUuXcAtbUoO38b1fs/ageBRxC/64NeIOJu5FINhEMHSHAAQgAAEIQAACEIAABCAAAQhAAAIQsJ4ABx65vX4dfl1hrr/auFFZ+ioWQ2vReho9e/ZGb8JBQR/ltiBRKiBsU7Y9f/5Wsyt58kS0+LfutN77sAxManaIB5wZ+8f20/T74p6i/m48uStP7h/lT2URMqX/IdG3jvvPMoDKWa6Pn7ykrEZk0GbPnl4ugOc1ZztdvKibQXxZ1A/mEhhJkrjI0wwc4EGlS+eisePXK6eVP4NFYLpHr9+oRrUi9Evnmjr72OPr1296pS++fAmW2bLaFsqBxUQd4LIVBlLP3r9Rn36Lqf/A32nUmDXks/UEvX37Qelm9M93yj359ycfmC9fZuIs7zlzt9Omzcf0xjJ13nnzZJLBd+3F+jibOjDwDf0kgrePn7yQ59AuKRIUFPoaMSUrmesnZxNlJ06fua4zZx5j6PCV8lw6Oww8cXKKY2Br1DfFEhHo/6peR30cHAkBCEAAAhCAAAQgAAEIQAACEDCLAGeTqfVXVTXPzSz4GAQCVhKQ/7YiqRG8Zu1BWrvuIPGiaRyU5IhW/vyZKaWoC7x8aW+dxbcGDFpKixbvFIuCfZOLsyVKFJ/y5c1M27eNpHhicbj6DccT17Ll7Nj48eNS0SLZaPjQpvLqx0/0pnP/3KIPYjG1NGmSioBdRtrhO1ru478uXLhDw0euosKFs1Ke3Jno/IXbctvM6R1lZqymo3iwfMVeERhdS61bVZaZwVdEJjBno9aqWYxKlO4ng8alS+WmyZPa6pSO0B4j7GPOPB42YiXVrVOCChbIQlyCgv+b2aN7HZ0xeEE0vpYbNx5ThfL55AJpe/aep5IlfqIB/RtS7Nih+aEbNx2VVhyw5EBwjhzpRZ9cstYyL3LH27l+LnsXLZqNODO5qSgBwe3YsctU32MCZc6cinjBNvbmAOv9+8/kc76uPr3rh70EvecnTlyhMePWady5nEKxojloyaKetN33FLXrMFuUhvgi72XevJlo9Yr+0p3vsanz5izpDp286Kn4ObC/h5yLn/8d4gzp7b6nRVB7EdWoXkReZ5o0yeRCfxzM58B2unTJqXSpXLRiWV+9azC0wU8sHMilKNq3q0oJE8aTC/lxyYgO7auK11YyQ4fob3Ny198WxS0IBEcRDodBAAIQgAAEIAABCEAAAhCAQMwIqDnYqua5xczdwKgQsKBAiK8FTxb9U3Em6u3bATJwysHk8No3kZXMwVgOLHO5ACVjmIO3HDTlBe6i0jjL+cWLt/TTTxl1AsCGxuLSChyodRV1gc3VpkzdTMdFAHf92oEyuK49Li/INnX6FhorgrtnT82kIkWya+9WxWO2v3PnKSVPnlCnpjHfV87E5Q8MzNH4PnNdZyenUH/+/xGTGgLBJnGhMwQgAAEIQAACEIAABCAAAQjYkICag61qnpsN3WJMFQKGBWwsEGz4IhxjK5eLSJysCZ04Ok1kRocuomfoyvMV7Ebt2rhRv74NDO3GNmMEzBgIRo1gY8DRBwIQgAAEIAABCEAAAhCAAAQgAAEIQAACEJACzs5OohRHYnr0OLSebngsnz59oayiTi6aOgQQCFbHfcAsIAABCEAAAhCAAAQgAAEIQAACEIAABCBgEwL87YhFC3tQvwG/09mzN/TmzOUVOv7PS9b5da9dXG8/NhgnEMu5jnEdjeyFGsFGQqEbBCAAAQhAAAIQgAAEIAABCFhGQM3lF9Q8N8vcHZwFAjEogNIQMYgbM0PfuxdIi3/fRW/evKdkyRLKWsXBwSH09Olrql+vJLnX/jnS+sUxMzP7GJUDweZcPBWBYPt4XeAqIAABCEAAAhCAAAQgAAEI2I2AmoOtap6b3bwAcCEOKRASEkJOtNMhrx0XDYHwBMwdCEZpiPCksR0CEIAABCAAAQhAAAIQgAAEIAABCEDAIgLOzs4WOQ9OAgFHFkAg2JHvPq4dAhCAAAQgAAEIQAACEIAABCAAAQhAAAIQcAgBBIId4jbjIiEAAQhAAAIQgAAEIAABCEAgKgL+/v7hHvbs2TN6//59uPuxAwIQgAAEIBAdgaDXG6NzuN6xCATrkWADBCAAAQhAAAIQgAAEIAABCEAgVODt27dUtWpVvYDvjh07yM3NjVxcXEAFAQhAAAIQiBEBF5d4Zh0XgWCzcmIwCEAAAhCAAAQgAAEIQAACELAngTJlylBgYCBlz56dlOzgXr16Ue3atWn+/Pn2dKm4FghAAAIQsHOBWN9Fs/NrxOVBAAIQgAAEIAABCEAAAhCAgA0JxIoVi9T0q+qxY8eobNmyUrBAgQLk5+dH/PPChQs2pIqpQsAGBEJ8bWCSmCIELCzg5G62EyIj2GyUGAgCEIAABCAAAQhAAAIQgAAE7FGAs4I58MuNg8DckA0sGfAXBCAAAQjYkAAygm3oZmGqEIAABCAAAQhAAAIQgAAEHEFAbRnBbB42KxjZwI7wSsQ1WlKAF15MmDCh3inD+3YA/3fCUDPU35S+pswjJCSEnJ2d9aZhaA7cyZR5mNLXHHPm+RmatynzMKWvWuZsjnkYcovJ+81jR7UhEBxVORwHAQhAAAIQgAAEIAABCEAAAjEiwMGE8H6xjpETGjlowYIFZUbw0aNHibOE0SAAAQhAAAK2JIDSELZ0tzBXCEAAAhCAAAQgAAEIQAACELCaAJeD4BIRCAJb7RbgxBCAAAQgEA0BZARHAw+HQgACEIAABCAAAQhAAAIQsJZAeF/BtdZ8cF4IxLSAGrPEY/qaMT4EIAABcwo4mXMwjAUBCEAAAhCAAAQgAAEIQAAClhN49Oi75U5mwTNlyBCL7PXaLMhoV6fi1wQaBCAAAQhETwClIaLnh6MhAAEIQAACEIAABCAAAQhAAAIQgAAEIAABCKheAIFg1d8iTBACEIAABCAAAQhAAAIQgAAEIAABCEAAAhCAQPQEEAiOnh+OhgAEIAABCEAAAhCAAAQgAAEIQAACEIAABCCgegEEglV/izBBCEAAAhCAAAQgAAEIQAACEIAABCAAAQhAAALRE0AgOHp+OBoCEIAABCAAAQhAAAIQgAAEIAABCEAAAhCAgOoFEAhW/S3CBCEAAQhAAAIQgAAEIAABCEAAAhCAAAQgAAEIRE8AgeDo+eFoCEAAAhCAAAQgAAEIQAACEIAABCAAAQhAAAKqF0AgWPW3CBOEAAQgAAEIQAACEIAABCAAAQhAAAIQgAAEIBA9AQSCo+eHoyEAAQhAAAIQgAAEIAABCEAAAhCAAAQgAAEIqF4AgWDV3yJMEAIQgAAEIAABCEAAAhCAAAQgAAEIQAACEIBA9AQQCI6eH46GAAQgAAEIQAACEIAABCAAAQhAAAIQgAAEIKB6ASfVzxAThAAEIAABCEAAAhCAAAQgAAEIQCDKAjt3bqWHD+9R7Nix5c+0aTNQhw49KU6cOFEeEwdCAAIQgIDtCSAQbHv3DDOGAAQgAAEIQAACEIAABCAAAQgYJXDkyD66fNmP+vYdKft/+/aNihTJQPzzl1/6GTUGOkEAAhCAgH0IoDSEfdxHXAUEIAABCEAAAhCAAAQgAAEIQEBP4Pr1S7R0qZdmO2cFp0//I/n5/a3ZhgcQgAAEIOAYAggEO8Z9xlVCAAIQgAAEIAABCEAAAhCAgAMKtG/fg44fv6W58keP7tONG1eoXr1mmm14AAEIQAACjiGAQLBj3GdcJQQgAAEIQAACEIAABCAAAQg4oECsWLEoceIk8sq/fv1K3bq1oDFjZlL16nUdUAOXDAEIQMCxBRAIduz7j6uHAAQgAAEIQAACEIAABCAAAQcR2LRpFdWp05iaN+/oIFeMy4QABCAAAW0BBIK1NfAYAhCAAAQgAAEIQAACEIAABCBgpwKXLp0nLhWBBgEIQAACjimAQLBj3ndcNQQgAAEIQAACEIAABCDggAIfPryn+/fv0Ldv33Su/t27tzrP8URdAl++fCEfn7UUFPQuWhNLkiQZcakINAhAAAIQcEwBBIId877jqiEAAQhAAAIQgAAEIAABBxI4d+4UNWtWjUaM6Enr1y+lAQP+R337tqeAgMd0+PAeWrx4lmo1nj8PpJCQkGjP79at6+TpWV3Uxi1KxYtnpqtXL0Z7TEsNsHnzaurevQVt27Y+WqfMlStftI7HwRCAAAQgYNsCTrY9fcweAhCAAAQgAAEIQAACEIAABCIS2Lv3T5owYRCtXbuL0qXLoOn65Mkj6tWrNQUGBpC7e2PNdjU9OHBgJ3Xu3ISmTl1M9eo1jdbUsmTJTvPnr6NJk4bQmjWLiBdOi4n2118+9Pr1Szl0nDhO1LBhC3JyivxXb77WgIBH/04pFtWt24RcXBLK53v3+opM3thUvnzVaE25dm2PaB0f9uCYuNaw58BzCEAAAhAwnwAygs1niZEgAAEIQAACEIAABCAAAQioSuDjxw80cOD/aPToGTpBYJ4kB4WnTVtCT548VNWclcmsWLGAunVrTkOH/iqD3ovPnQAAMBJJREFUosr2qP6MHTs2JUuWnH7+uWxUhzDquDRp0hMHgH/9dRj16dPWqMzjEycOyQztIUO6ymNdXbNRvHjx5fmCg4PpyJG9VLVqHfrxR1ej5mCoE5+jZcta9ObNa0O7o7TN3NcapUngIAhAAAIQMFoAgWCjqdARAhCAAAQgAAEIQAACEICAbQmcP3+Gnj59HG7wkwOLHh6tVHVRSv3igwd30r59/tS2bVez1rXlgHBMtiJFShCXYGjcuLU8zf37tyM83adPn4gXcfv06SPVqFGfmjRpQ6VKVRAB4TjyuDNnjtH79++oQ4eeEY4T2U7O/L561Z+4TrS5mrmv1VzzwjgQgAAEIGBYIGb/H9DwObEVAhCAAAQgAAEIQAACEIAABCwgcPfuTXmWFy+ehXu26JZcCHfgKO7YunWdPHLZsm16WcxRHNLih3H2bdOm7eR5eXG+iNqGDcspT56C9Pbtaypbtope1/37/6IcOfKIfZX19pmyge/z2bMPzG5qzms15XrQFwIQgAAETBdAINh0MxwBAQhAAAIQgAAEIAABCEDAJgSyZs0p57lw4fRw55svX+FolRwId+Ao7uCaurbeOPCeI0duSpgwMUWUEcwL1mXMmJn8/c/JSy5VqqLepR848Be1b99Db7taNpjzWtVyTZgHBCAAAXsViLxivb1eOa4LAhCAAAQgAAEIQAACEICAnQsULFicXF2z07JlcygkJJg6depD2bKFBoeVS0+QwEWWI1CeKz+5RMPq1YtkaQkupxASEiLHatq0rdLF6J/Xr1+mbdvWU9KkyUXm6xv69u0rZc+eSz5u06aLZpzXr1/RihXz5fNJk4bS8+eBok7wIMqaNYemDz84ffoo+fpuIg5CxosXj6ZP/50uXDhLJ08eppcvn8vs2pYtO1PevAV1jgv7hMslbNq0kj5+/CgXaqtSpZYszxC2nynPeRE6paxD5sxZ6d49w6Uhvn//TgcP7qJffulHK1cuoNSp0+ndG17Q7/HjB9SokbrKdyge5rxWZUz8hAAEIACBmBNAIDjmbDEyBCAAAQhAAAIQgAAEIAABqwooQdLmzavTqlUL5Z/06X+UJQgqVapJHPh0cUmoN0cOwHbt6kmVK9eiAQPGavbPnfsrtWlTh+bMWU2JEyfRbI/oweXLfjR+/EARjN5GcePGlV25Lm7r1rWpWLHSmkO5du2wYd1p1KjpNGXKcBoyZCKdOnWEqlUrTLNnr6DatT00fTNlykoVK1aX/Z2df6Bdu/6QNXY7d+4r+/z22wyxwFxpOnz4CmXIkElznPaD27ev0+7df1D37oPJ2dlZZuXWqFGUFi3apHMu7WOMeXzx4j/EWdbcMmfOJuvyGjpuy5Y1VL++pwiKf5PXyfcjbONAMZeY4GC9Gps5r1WN14c5QQACELA3AZSGsLc7iuuBAAQgAAEIQAACEIAABCCgJVCyZHn688/TVLx4WbmVM0y5Lm2XLk3Ftky0fftGrd6hDwcO7ExJkiST2araOzlo+uXLFxozJjTgqr0vvMec7cqLnylBYO7HAWrtADNv2717Ox06tJv+/vsEP5WtRIlyMkN38OAuxNmnSkubNr0IUtckvragoLd048Zl0q517ObmLgLDH4iDreE1rkXcu/f/27sXOJvK9YHjz9QQR3LPrUQuSQyRdNNFUuhGupwpSSUVcgkHJZGo3JKiSNEhSa4hTpEjTRedcsklETLEuI/7/b+e13/t9p7Z26xlZs/ea/ZvfT5j773Wu971vt93n0/HM4/nfdEEgbVNtWo1TVauZkFn5khKWmDGpX1oRvCmTRtMsFc/28fWrVvMBng6D90oTusDX3/9LfZl32vDhk3k+edf9n128mbfvlRJTt7o+mfXrp1Oug9ok5SUdXMN6JgPCCCAAAJhESAjOCysdIoAAggggAACCCCAAAIIRI/A5ZdXk2nTvrHKPPwlSUlfi27wtXDhl1aQcr0VEH5IypQpJ9WrX2UGvHDhV1aG7TR5//0pQSegWaydOrWU5s2flho1agdt43/y6NEjMmnSR3Lffc2lVKmLfJeqVq0pmzf/6ftcpEgxq0TDQfPjO2m90ezaqVPHm5IPxYoV979klWCIN6UrNPDrf5QrV0Hi43OZIKz/ef/3uvlaXFyc/ympVKmKFUDdEHDO7QctV6Fz0UMzl48dOypa4qF06Yt9XU2d+rHY2ctJSQvM+WD1gQsWLGSuuflDM781k9rtodnLffq86eq2rJyrqwfTGAEEEEDgrAQIBJ8VGzchgAACCCCAAAIIIIAAAt4TKF68pDRpkmh+tEZt9+7PmnIRffp0lsmTF5gJLVo0z7xedlnVoBPUYKkeSUkLHAWCtVavZuZec005kylbp86N5lUzYDWobB91695qZfbuE61H3K7dIyZ4qtnLdrB4z55dkjYQfPreOKuGcGDdY+1D6/SeOHHc7j7da/nyldOd0+Cx1kI+28O/Zq72oRnBemjA3Q4Ez5s3W2655Q4zT7323XcLpHjxUunqIOu1szmefbarVdaj69nc6uqeaJirqwHTGAEEEEBAKA3BlwABBBBAAAEEEEAAAQQQyKECuoGa1t4Ndmg27GuvjRDNpv3ppyRT8kHbrV693DTPm/cfwW7z1atduXJp0OtpT9asWccqP/G9qUu8ePG3Mnjwy9bmdPWsDOGbTYayf3vdLG7o0FfNqQ8/fNuUfbBrEWst3WCHBnxz584d7FK6kgz+jfLmzev/0fc+1HN8Dc7wZtmy/0lCQi1fC82y1cPeMG7//n0msF258ukguz5LN7gLlg3s6yRK38TSXKN0CRgWAggg4FqAQLBrMm5AAAEEEEAAAQQQQAABBLwhoIHXDRvWnXGwTZs+YmXBHhPNvtXDLmtw5MjhoPfZ5+12QRv5ndy7d49Vf/dK+fjjObJy5W6rzMM3Vu3hzvLzz99Ljx5tfC3Xrl0tN95YWdav/92c69Gjv9x0UwMpUaK0r020v9GSG1q32D50o7pzzjlX/vzzD3Nq4sQPrSD4Y/ZlUx943769QesD+xpF6ZtYmmuULgHDQgABBFwLUBrCNRk3IIAAAggggAACCCCAAALeEdBs3ypVEkIO+Pzz85t6uqVKna5hq5um6WZyuuFY2bKnM1r9b9bNz/TQ2r1Ojpdf7ihvvDHSbMqmWbhXX32D+alSpbr8619Pm0xkzeht1aqZFC16oZUx/IFVU3isr2utset/aGmFW29t5H8qat7v2vV3fWAdVK5cuay6yBebjOCff/7BWofqZqM8e8BJSQvM26zMCO7Xr7vMmTPN9Ovmj6pVa8jw4RMc3xINc3U8WBoigAACCBgBAsF8ERBAAAEEEEAAAQQQQACBHCzw/vtD5f77W0ioUghaPqJ27et95RWaNHnYlGfQYKJuqJb2mD9/tlx0UVlp3Pi+tJeCftaM4G+++Urq1WsYcP322++Rzp2fNLVyU1K2ypo1K+Shh57w1c61G69Zs9K81ZrGeuhGaNEYCD5y5IjJ/jWD9PtDg+nr1v1mym889VRHvyt/1wfWze2y6tBMav0J5xEtcw3nHOkbAQQQyIkClIbIiavKnBBAAAEEEEAAAQQQQACB/xdITt4gzz//hFVvd186k61bt4jW4n355SG+a4UKFZYBA0bJ9OmfpCsrkZS0QObOnSGDBo321Qr23XiGN2+80VOOHTsW0OKXX34UDQbHx8ebchSFCxeT3377VeyArzbW8ZUrV9EEWLdt2yJaQ7hEiVK+fg4e3G9tCHdCDh8OLGNx9OhRk2m8a9cOX1v7zYED+81b+9U+r696Tn800On2GDVqSNDN6cqUudRkVzdr9mhAl/v2pZoN9+rUqRtw3gsfYmmuXlgPxogAAgg4FYiz/iN7+teqTu+gHQIIIIAAAggggAACCCCAQMQFdLO3zZvP/Nc5zQbesSPF1KXt16+bVKpUxZR0KFasuPz66y8ybtxIeeGF19Nl6+rkVqxYapV0eNG0r1ixiqlnqxvE9e49RCpUqOx4/lryoV69RrJs2enM40KFisiqVcusurnrpWvXvlK4cBHT15Ili02GcMWKl8uMGRNl4MDRZrO4Vq06mFrCCxbMFQ2a9uw5UL79dr6MHz9SNJisgeBLL60oNWteYza/69btGXNes3D1r7u6edtjj7WRK66oLr16dTTPTk3da8pQ6DxGjPhEpkwZLzNnTjL36WA0Q1fH3L17vwznOW3aBBkzZrjxzJMnjxnHsGHjpECBguZeXQOtc3znnc3MZ81wfuutfla5iHXWxny/WvMvKrVqXSOJia2CZmBnOIBsbBDJuZYuHRfwS4JsnDaPQgABBHKMAIHgHLOUTAQBBBBAAAEEEEAAAQRiScBJIHj58p9NRq3WAdagqJaB0ODp/v2pUrlyNVOr1w5YhrLTDNmNG/8w/YQqLxHqXj2/c+ffdXN1Q7hDhw6Z2sP5818Q9LbNmzdZ4ypjBY5TfBvXacPdu3eZ4Oo55/APW4PC5fCTBIJz+AIzPQQQyBYBAsHZwsxDEEAAAQQQQAABBBBAAIGsFXASCM7aJ2Zfbxr0yyjbOftGw5OiQYBAcDSsAmNAAAGvC/CrVK+vIONHAAEEEEAAAQQQQAABBBBAAAEEEEAAAQQyECAQnAEQlxFAAAEEEEAAAQQQQAABBBBAAAEEEEAAAa8LEAj2+goyfgQQQAABBBBAAAEEEEAAAQQQQAABBBBAIAMBAsEZAHEZAQQQQAABBBBAAAEEEEAAAQQQQAABBBDwugCBYK+vIONHAAEEEEAAAQQQQAABBBBAAAEEEEAAAQQyECAQnAEQlxFAAAEEEEAAAQQQQAABBBBAAAEEEEAAAa8LEAj2+goyfgQQQAABBBBAAAEEEEAAAQQQQAABBBBAIAMBAsEZAHEZAQQQQAABBBBAAAEEEEAAAQQQQAABBBDwukDcKevw+iQYPwIIIIAAAggggAACCCAQawJxcXGxNmXmG+MChC9i/AvA9BFAINMC8ZnugQ4QQAABBBBAAAEEEEAAAQSyXSAnB8U0yB2t84vmsWX7l5AHIoAAAgh4SoDSEJ5aLgaLAAIIIIAAAggggAACCCCAAAIIIIAAAgi4FyAQ7N6MOxBAAAEEEEAAAQQQQAABBBBAAAEEEEAAAU8JEAj21HIxWAQQQAABBBBAAAEEEEAAAQQQQAABBBBAwL0AgWD3ZtyBAAIIIIAAAggggAACCCCAAAIIIIAAAgh4SoBAsKeWi8EigAACCCCAAAIIIIAAAggggAACCCCAAALuBQgEuzfjDgQQQAABBBBAAAEEEEAAAQQQQAABBBBAwFMCBII9tVwMFgEEEEAAAQQQQAABBBBAAAEEEEAAAQQQcC9AINi9GXcggAACCCCAAAIIIIAAAggggAACCCCAAAKeEiAQ7KnlYrAIIIAAAggggAACCCCAAAIIIIAAAggggIB7AQLB7s24AwEEEEAAAQQQQAABBBBAAAEEEEAAAQQQ8JQAgWBPLReDRQABBBBAAAEEEEAAAQQQQAABBBBAAAEE3AsQCHZvxh0IIIAAAggggAACCCCAAAIIIIAAAggggICnBAgEe2q5GCwCCCCAAAIIIIAAAggggAACCCCAAAIIIOBegECwezPuQAABBBBAAAEEEEAAAQQQQAABBBBAAAEEPCVAINhTy8VgEUAAAQQQQAABBBBAAAEEEEAAAQQQQAAB9wIEgt2bcQcCCCCAAAIIIIAAAggggAACCCCAAAIIIOApAQLBnlouBosAAggggAACCCCAAAIIIIAAAggggAACCLgXIBDs3ow7EEAAAQQQQAABBBBAAAEEEEAAAQQQQAABTwkQCPbUcjFYBBBAAAEEEEAAAQQQQAABBBBAAAEEEEDAvQCBYPdm3IEAAggggAACCCCAAAIIIIAAAggggAACCHhKgECwp5aLwSKAAAIIIIAAAggggAACCCCAAAIIIIAAAu4FCAS7N+MOBBBAAAEEEEAAAQQQQAABBBBAAAEEEEDAUwIEgj21XAwWAQQQQAABBBBAAAEEEEAAAQQQQAABBBBwL0Ag2L0ZdyCAAAIIIIAAAggggAACCCCAAAIIIIAAAp4SIBDsqeVisAgggAACCCCAAAIIIIAAAggggAACCCCAgHsBAsHuzbgDAQQQQAABBBBAAAEEEEAAAQQQQAABBBDwlACBYE8tF4NFAAEEEEAAAQQQQAABBBBAAAEEEEAAAQTcCxAIdm/GHQgggAACCCCAAAIIIIAAAggggAACCCCAgKcECAR7arkYLAIIIIAAAggggAACCCCAAAIIIIAAAggg4F6AQLB7M+5AAAEEEEAAAQQQQAABBBBAAAEEEEAAAQQ8JUAg2FPLxWARQAABBBBAAAEEEEAAAQQQQAABBBBAAAH3AgSC3ZtxBwIIIIAAAggggAACCCCAAAIIIIAAAggg4CkBAsGeWi4GiwACCCCAAAIIIIAAAggggAACCCCAAAIIuBcgEOzejDsQQAABBBBAAAEEEEAAAQQQQAABBBBAAAFPCRAI9tRyMVgEEEAAAQQQQAABBBBAIGOB7du3Z9yIFggggAACCCAQUwIEgmNquZksAggggAACCCCAAAII5GSBDRs2SGJiokycODEnT5O5IYAAAggggMBZCBAIPgs0bkEAAQQQQAABBBBAAAEEoknADgCXK1dONBu4bdu20TQ8xoIAAggggAACUSAQd8o6omAcDAEBBBBAAAEEEEAAAQQQQMClgAaAe/ToIRMmTDB3lihRQtauXSv58uVz2VN0NY+Li5No/atqNI8tulaR0SCAAAIIRJsAgeBoWxHGgwACCCCAAAIIIIAAAghkIHD8+HF59NFHfQHgDJp78jKBYE8uG4NGAAEEEIhiAUpDRPHiMDQEEEAAAQQQQAABBBBAIJhAfHy8jBo1Snr37h1w+bnnnjOZtBpE9fpPwMT4gAACCCCAAAKZFiAjONOEdIAAAggggAACCCCAAAIIRE7gwIEDMmjQIOnVq5cZxKxZs6RRo0aRG1AOfzKlIXL4AjM9BBBAIAcLEAjOwYvL1BBAAAEEEEAAAQQQQCB2BPwDwikpKVKsWLHYmXw2zpRAcDZi8ygEEEAAgSwVIBCcpZx0hgACCCCAAAIIIIAAAghEVkADwtOnT5fExMTIDiSHPp1AcA5dWKaFAAIIxIAAgeAYWGSmiAACCCCAAAIIIIAAAgggkDUCBIKzxpFeEEAAAQSyX4DN4rLfnCcigAACCCCAAAIIIIAAAgh4RGD58uUhR7p9+3bRDGwOBBBAAAEEvCBAINgLq8QYEUAAAQQQQAABBBBAAAEEIiKQmpoqt912W7qA7+zZs6V+/fqSL1++iIyLhyKAAAIIIOBWgECwWzHaI4AAAggggAACCCCAAAIIxIzA9ddfL7r5XoUKFcTODm7fvr00btxYhg8fHjMOTBQBBBBAwPsC1Aj2/hoyAwQQQAABBBBAAAEEEEAAgTAKfPvtt3LDDTeYJyQkJMiyZctEX5cuXRrGp9I1AggggAACWStAIDhrPekNAQQQQAABBBBAAAEEEEAgBwpUr17dBIDtqS1atEg0W5gDAQQQQAABrwhQGsIrK8U4EUAAAQQQQAABBBBAAAEEIibgXwZCs4EJAkdsKXgwAggggMBZChAIPks4bkMAAQQQQAABBBBAAAEEEIgdAQ38agBYD/+gcOwIMFMEEEAAAa8LEAj2+goyfgQQQAABBBBAAAEEEEAAgWwR0AAw2cDZQs1DEEAAAQTCIBAfhj7pEgEEEEAAAQQQQAABBBCIWYG4uLiYnXusTJw1ztkrferUqZw9QWaHAAIxK0AgOGaXnokjgAACCCCAAAIIIIBAuAQ2byaQFC5b+kUgnAKlS/OLnHD60jcCCERWgNIQkfXn6QgggAACCCCAAAIIIIAAAggggAACCCCAQNgFCASHnZgHIIAAAggggAACCCCAAAIIIIAAAggggAACkRUgEBxZf56OAAIIIIAAAggggAACCCCAAAIIIIAAAgiEXYBAcNiJeQACCCCAAAIIIIAAAggggAACCCCAAAIIIBBZAQLBkfXn6QgggAACCCCAAAIIIIAAAggggAACCCCAQNgFCASHnZgHIIAAAggggAACCCCAAAIIIIAAAggggAACkRUgEBxZf56OAAIIIIAAAggggAACCCCAAAIIIIAAAgiEXYBAcNiJeQACCCCAAAIIIIAAAggggAACCCCAAAIIIBBZAQLBkfXn6QgggAACCCCAAAIIIIAAAggggAACCCCAQNgFCASHnZgHIIAAAggggAACCCCAAAIIIIAAAggggAACkRUgEBxZf56OAAIIIIAAAggggAACCERcIDl5o/z446KIj4MBIOBWICVlqyxc+JXb22iPAAIIxKQAgeCYXHYmjQACCCCAAAIIIIAAAgicFli8+Fu5446rZNq0CZBESGDr1i2yd++eCD3du49duXKZNG58tXz00QjvToKRI4AAAtkoQCA4G7F5FAIIIIAAAggggAACCCCQkcChQ4dk/fq1smVLspw8eTKg+eHDh+XEiRMB5zLzYcqU8dK69QPy0ksDpV+/dzLTFfdmQuCll9rLypVLM9FD7N06f/4Xkph4u7Rq1VHee+/T2ANgxggggMBZCMSfxT3cggACCCCAAAIIIIAAAgggkIUCGvCdNOkj+eSTD+TAgX1SpUp1yZMnrxUM3iR16tSVZ5/tKnFxcdK161PSvv2LUr58JRk06GX55pt5smvXDqlZs468+eYYVyMaNKi3rFv3m3z55RIpUqSYq3sj0fjxx5tISspfZr7PPNNFmjdvHYlhZPkzU1P3yq+//mLW2Wnnfft2lVOnTjlt7mtXoUJl+ec/n/B91jdHjhwx37nChYsGnA/nh8yu5dixI2T+/Nkyc+b3ctFFl4Qcqv7SRLOtS5e+OGQbLiCAAAKxJEAgOJZWm7kigAACCCCAAAIIIIBA1Als3vynPPFEUzl27KgMGDDKBHX9B6nB3u7dn5Wbbmogkyf/W5577gVzuU2bbtKwYVO5665rRAN8bg7NNq5Ro7Y8/3wvN7dFtO1bb31kBf4+s8b8uBW8PBzRsWTlw2fN+kwaNWoq55zj7B/sHjiwX0aMGCBVq9Y0vyAoV66C+aXBsWPHpEuXVrJ06WJp0eJZ86Pj3LcvVZYt+0mGDn1VypYtny4QPGnSWCsbvJuMHj1Vrr32pqycWsi+MrOW+/fvk4IFC8vYsZ+H7N++oNnuX3wx1bStX7+xfZpXBBBAIGYFnP2XJmZ5mDgCCCCAAAIIIIAAAgggED6BTZs2WDVO68i5554rM2YkpQsC65Pr1r1Vnn66s7Rt+0jAQPLkyWNlDifIhReWDDjv5EOpUhfJzTffLqNGvSm33VbDE5ttnX9+fsuivpPpBW2jNXi7dm0tDz3UwJTeCNooAie1PEfTpoFre6ZhaAZ4uXIVrQDnYrnnngclIaGWVKpURa64orpcfnmCubVWrWvlssuuMD9XXXWtPP54O/P92r17Z7quNUO4Q4ee1i8jmshnn/073fVwnMjMWuq9Ou9PPx0r9epVk88/nxRyiIUKFZHzzjvPBMpDNuICAgggEEMCBIJjaLGZKgIIIIAAAggggAACCESPgGZwavBt797d8u67EyVfvvNDDk4zObt2fSXodaeZpP43L1/+szRrdotoNnLPngPkww+HWZnGj8rOndv9m0Xd+7OZq05ixoxP5cEH65uAaWLik9Zcm5sMWV2DSB6ama2BXQ3oOz20/YMPtgyaQazlQ/SwX/37vOSSS635X+F/yrzXX0I89VRHmTv3Z9GgtJYcyY7jbNdy7drfrKzm2+XHHxdJ795vWuOeLi1b3mu+y2nHPWDASKvsxg654YZ6aS/xGQEEEIhJAUpDxOSyM2kEEEAAAQQQQAABBBCItMD48aNkxYol8thjbeTii8tmOBytidu/f/cM22XU4KefvjP1Vd9/f7KvNvCNN95mbVa2zAQBu3XrJxdcUCCjbjxzfcKE0XL8+HGZPv1bkx2qA7/77gfkq69mWaU4XpIePfpHbC7Tpk2QJk0SXT1fA8F25q+rG63GWk/36NGjkjt37nS36nfw44/nmKzgOXOmyR133GvavPvuIFmwYK68/fY4KVr0wnT3ZeeJ1at/tTKBx8jAge/76v5qxrxurjhixEDR2tFp6wH/4x/5snOIPAsBBBCIagECwVG9PAwOAQQQQAABBBBAAAEEcqrAyJGDzdTuuKOJoylqQOuqq65z1PZMjbRUgP6kPTQrtV+/d9Ke9vzntJuj2RPSmrGRrhs7dep4GTNmhj0kR6+HDx8ypSEcNU7TqHz5y0wGerFixdNc+ftjs2bN//5gvfvss49k1aplMm/ebCsT+bGAa9n9oXLlqvLSSwPTPVbrJPft+1a685xAAAEEEAgUIBAc6MEnBBBAAAEEEEAAAQQQQCDsAr//vko2blxnnlO79vWOn/fww62sjbIKhWw/a9Zk0+9ff22WvHn/Yf7Jf7Aszj17dlsbaA2XQ4cOyqlTp2THjhRp0+ZfcumlFQP6/vrrOVb28BdWyYgUq3RFfnnttRHWhnXjZM2aldYmZHtNJrPWt9Waw04PHdvo0UPNM/W5w4aNMxvlTZ36sehGaH/9lSy33trIl5Eaqt8jR47IJ598IKmpeyQ5eaNokFNr4cbHp/9rrpYTmDjxQ8mVK5foZmO5c59nlYfokS7zedKkj+SXX34wY9N1adWqg9ls7M8/15tnnMk01DhDndfs1vz5C1gZrGVCNQl6vmFDZ784CHazZpXrYa+BlgLRn+7d+1tZxtXMNS21oBsU7tq13XyH3n57vOV6r1WDuIa57uQPXceRI4eYoLO2140Q77zz/pCb0blZy5MnT8q4cSNl27YtpjyGZnuXLVshXZBaM4Q3bFhr1vKeex4yWeBOxk4bBBBAICcLpP8vZE6eLXNDAAEEEEAAAQQQQAABBKJA4LffVphRaCBQN31zepypjMDw4QNMLdTGje8zwV0N3mld3HnzlgV0f/DgAXnhhbbSq9cga6O5EubaDz98Iw0aXGnVzR1rbV53n699xYqXy4kTJ6Rz5ydNULBt24etusbt5YEHWogG5D7++H1z35AhH1qbzt3pu+9MbwoUKGgFehvL8OFvyNdffyG//75SkpIWmEC0Bmq1fvEdd9SyAomfBYzFv08NYA8c2Etat+5kyhWkpu61+qxmBcH/kFdfHebfVNR69Oi3rPNvm0CwXhw2rL/ceGNlqybuwoDg95VXXm2Cix07tpTChYvKe+8NNsFLDb5qwDyUacADHX7QgHrTpg87bJ21zew1eOed180atGv3d8kRLTuha9u+fQsTVM+bN5/06TNUqlZ1FghW7yefbGpZPScdO/Y0A1e7wYP7SErKVrPRm/9s3Kyl/uLg2Wf/aW0S10i6dOnj6+btt1+TFi3uMr9UsMuaaF3ggwf3W0Hj98TNL1t8nfIGAQQQyIECbBaXAxeVKSGAAAIIIIAAAggggEB0C2gWph6FChXJkoEuWfKjXHbZFZKQUMv0p5uFabB19erlojWB/Y///Odz+e9//yP/+9/f5+vUqWsycLt1e8YEfu32WlNWyydUrXqlaFZs5859fGUldLOvRx55ymRiPv30A+a6fd+ZXrXExbXX3iR33fWAaTZx4hgr6PiCL0hbrVpNK0Bd0mR9hupHM3c1W9fOdtbgX+3aN5j6sVoD1//44INhsmjRPJNpbJ/X7GcNOvfr180+ZV4rVKgs9933iJQseZHZjEw/OzEN6MTBBw2Mzp492WTJOmie5U3sNdBM2bRHmTLlRAPfmgFcpEgxU3LBaQkN3Xzv6acfNJvStWzZxte1nteM7OHDX/eds9+4WcuuXVtLgQKFrGc8b99uXtu27WZqH/fu3cl3Xr9HiYmtfJ95gwACCCAgQiCYbwECCCCAAAIIIIAAAgggkM0C+fNfYJ6o/4Q+K46jR4+Ycgr+fVWqVMV8TE7e4H/aBPc0C1N//A8N9mo5AN2MLO1x7rnnSvHiJa3yC5XSXrKyPztY//T/mLzySpd01850wi7hoJmmGrj2P3Tsacftf12D3nY2s31e79EM0N27d9qnzGvx4qVM+QMtIWAfGsSuUqW6KXFhn/N/1bGlpPzl2NT/Xifvv/9+oRW4r3rGMh9O+slsG13XUIdei4tzFzLQkg1r1qwwmdr+/Wpful4JCVf5nzbvna7lwoVfydy500JmUd977z9NqZAlSxb7nmF/x3wneIMAAgjEuAClIWL8C8D0EUAAAQQQQAABBBBAIPsFLr64rHmoBi31n+FrYNLJoZmkaYOmel/58pXT3R4fn8uc8w+A6om6dW+1yjHs8z1T68Vu2bJJNm/+07Tfs2eXBNtMLNQYS5YsLZpFmpT0tbnf7R+hxp523P79aqZu2kMzfPVIe1+nTi9Jhw4vmvmq9YYN62T79q1WjeNU0bmGOkKNK9gzQvUR6vyUKeNDBjRD3eOF8999t8AMU7Nx/Q8NBM+c+b3/Kd97p2upWd16aAA92GH/4iMpaYHUqFE7WBPOIYAAAjEv4Oz/bcQ8EwAIIIAAAggggAACCCCAQNYJ1Khxtdko7OTJEyGzUoM97aOP3g2asZs3b95gzc05DX6mPXSzuKFDX7Xqtd4gH374trWBWqpv47Rg7dPen/bzRReVNUHVbdv+Snspw8+hxn6mceTJE3q+p06ln+8ff6wRLXuRmHi7zJkzzQTTtTzCmZ4Ralw6oTPdl9GEdWM0Lc1Rv76zmsoZ9RdN17U+cK5cuU09aafjcrqWWuZED92wL9ih66nHypVLg13mHAIIIICAJUAgmK8BAggggAACCCCAAAIIIJDNApq9am8UNm/eLMdPX7FiidnEzPENQRquXbvabJS2fv3v1mZvc6RHj/5y000NpESJ0kFaOzulmc0aAMyqmsfOnuqs1YwZn1pB1+qimacTJvzH2mysi1x99Q2+wLezXrKu1fz5s01WtptNArPu6eHtSTPJjx07Knv37snyB2m9Yj2OHDkctG/7vN0uaCNOIoAAAjEuQCA4xr8ATB8BBBBAAAEEEEAAAQQiI9C+/YuSL19+GTt2hBw+HDy45T8yLXlglz/wP+/2fatWzcwma4MHf2A9/3zf7RrA8z/mzZvt/zHk+xMnTogGlfWf7OfOnTtku0hc0LIXzz3X3NrQrqVVy7h9QFkN/03ltCyGZrNmxzF58jhp0uTh7HhUpp6xd+9u1/frBnN6bNiwNui9+l0528MuN5GcvDFoF5s2bTDntdY1BwIIIIBAcAECwcFdOIsAAggggAACCCCAAAIIhFVAN18bOnSsqc37+usvZPiswYN7y1NPdcqw3ZkapKRsNZt51ap1ra9GsN1+zZqV5q3WIdbjhx++Ma/2H5rlmbb+rl6bMWOiHDiwT9q27WY3jZpXnYMGuDUDOO1xer6n57p165aQwcu092XmsxpqVvd1192cmW6y7N4LLiho+vIPiuuJgwcPiJbTcHs89lgbOe+8PDJr1uSgt2o5ktTUvUGvZXRSg+dFixY3pT2CtdVMay1R0rjxfcEucw4BBBBAwBIgEMzXAAEEEEAAAQQQQAABBBCIkEDDhk3knXfGy5gx78grr3SRtAE5HZYGZv/97/esINclcskll6YbqQbtDhzYn+68fW7Xrh2+a/rP5gsXLmZlv/5q+rUvaCC0XLmKVnD4XNm2bYtV73e3VSqilH3ZvB4/fkzGjx8VcE7ve+ONntKs2aNy1133B1zL6IM9PvvVv72e0x+tp+t/2G3t12DX/OdrbyC2atXp+rJ2+++++680aHCXmeehQ4fMnMuU+dvWjandp5PXWbM+k0aNmqYLwju510kbe/M7p9m8mmWrNXp1s0D/Y/bsKVKtWi0raLsn4Hvi3ybY+3LlKkj37v1l9Oi3ZPXqXwOaaOD9vPPO85XksNfQfvVvbJ/zX8tChQrLgAGjZPr0T8yGf/7tk5IWyNy5M2TQoNFi1wrW63Y/hw8f0o8cCCCAQMwLxFn/p+L0r0BjngIABBBAAAEEEEAAAQQQQCDzAnFxcVaWr7u/ZmmQrG/frrJu3W9y//0tRP95+/nn5zfBtIULv5TWrTtJnTp1AwanAdhFi+ZZm2MtM8G6K6+82grGPmBqDz/zzEOmr+3bt5nNtSpXrir9+w83dXKXLFksnTs/KRUrXm4CuJolrJvFtWrVwaoX3EYWLJhrntWz50AraFzEPLNFi7tMJqsG2hYv/lYSEq6SjRvXycyZk+SBBx6Thx9uFTC2M33QGsW9enWUVauWmezQokUvNOMaMeITmTJlvOnzl19+NF1oYLFevUZWcLGftGx5r5mTBi01eJmQUEs6dHjRtHvzzb6yfPnPcujQQdE6teXLXybjxp0ubTFx4hgZOLCX5fqoyQz+/fdVcvHFZU2/d95Zx/LJJ7VrXycvvPC6FWh86axMzzRf/2vNmt0iL788xFrf0yUU/K+d7ftOnR4XXecdO1JE56aHlhCpUqW6Kf1x7bU3yzPPdA7Z/bRpE+TddwfJE088JxdeWEKWLfufVcO4vgwZ0ke++mqm9T2pYrJsu3TpE7KPtBe0rIhmuTdocLcZx9atm8139PHH25nyHGe7lvqcFSuWWr98eNH8b0THphnWukFc795DzPfIHouWQNFfeGzevMk4VKmSIMOGjTPfD7tNsNfSpeNcBb+D9cE5BBBAIFoFCARH68owLgQQQAABBBBAAAEEEPCkwNkEgu2Jbtv2lwlEarBTN1/TYK0G5cJRe1cDZDt2bDOZxv4bbO3evUsKFCgYkLVqB4J/+mmTyVrWgHXBgoWlZMnS9tCj+vXkyZNWqYPfTaC4fPlKvqxRzYvS+doB73BOYsuWZHnkkYYyf35gdnI4n+m0b61RnZy8wfI5ZL5zupGdeqmbZuIWKFBI4uPjnXbna7dz53bLd6cJzOv/LrLy0GzfjRv/MJnsefPmzbKuCQRnGSUdIYBAFAoQCI7CRWFICCCAAAIIIIAAAggg4F2BzASCo3XW/oHgaB2jk3GtX7/WlIG45pobnTTP0jbDh78hullau3bds7RfOstaAQLBWetJbwggEF0C1AiOrvVgNAgggAACCCCAAAIIIIBA1Alo5mxOqCrYrt0jVomIer7asdkJrWUvmjRJzM5H8iwEEEAAAQQCBNz/246A2/mAAAIIIIAAAggggAACCCCQkwW07m5y8kazsZrWotUavF49unZ9RbRGcb5852frFHSzuvz5C5gyHNn6YB6GAAIIIICAnwClIfwweIsAAggggAACCCCAAAIIZFYgJ5WGGDdupHz55ef/Xy84zqoZe0IqV65mNm/LrFMs3d+377/kkksulebNW8fStD05V0pDeHLZGDQCCDgUIBDsEIpmCCCAAAIIIIAAAggggIATgZwUCHYyX9pkLHD33dfJ2LEzzcZrGbemRSQFCARHUp9nI4BAuAUIBIdbmP4RQAABBBBAAAEEEEAgpgQIBMfUcjua7PHjxyU+nsqMjrAi3IhAcIQXgMcjgEBYBdgsLqy8dI4AAggggAACCCCAAAIIIBDrAgSBY/0bwPwRQACB6BAgEBwd68AoEEAAAQQQQAABBBBAAAEEEEAAAQQQQACBsAkQCA4bLR0jgAACCCCAAAIIIIAAAggggAACCCCAAALRIUAgODrWgVEggAACCCCAAAIIIIAAAggggAACCCCAAAJhEyAQHDZaOkYAAQQQQAABBBBAAAEEEEAAAQQQQAABBKJDgEBwdKwDo0AAAQQQQAABBBBAAAEEEEAAAQQQQAABBMImQCA4bLR0jAACCCCAAAIIIIAAAggggAACCCCAAAIIRIcAgeDoWAdGgQACCCCAAAIIIIAAAggggAACCCCAAAIIhE2AQHDYaOkYAQQQQAABBBBAAAEEEEAAAQQQQAABBBCIDoG4U9YRHUNhFAgggAACCCCAAAIIIICA9wXi4uK8PwlmgEAMCxAmieHFZ+oI5HCB+Bw+P6aHAAIIIIAAAggggAACCGSrAEGkbOXmYQgggAACCCDgUIDSEA6haIYAAggggAACCCCAAAIIIIAAAggggAACCHhVgECwV1eOcSOAAAIIIIAAAggggAACCCCAAAIIIIAAAg4FCAQ7hKIZAggggAACCCCAAAIIIIAAAggggAACCCDgVQECwV5dOcaNAAIIIIAAAggggAACCCCAAAIIIIAAAgg4FCAQ7BCKZggggAACCCCAAAIIIIAAAggggAACCCCAgFcFCAR7deUYNwIIIIAAAggggAACCCCAAAIIIIAAAggg4FCAQLBDKJohgAACCCCAAAIIIIAAAggggAACCCCAAAJeFSAQ7NWVY9wIIIAAAggggAACCCCAAAIIIIAAAggggIBDAQLBDqFohgACCCCAAAIIIIAAAggggAACCCCAAAIIeFXg/wAekBnAlQc50AAAAABJRU5ErkJggg==;" vertex="1" parent="1">
          <mxGeometry x="-220" y="110" width="955.93" height="280" as="geometry" />
        </mxCell>
        <mxCell id="qBwJLGhYPLfwIa4ArQ2N-2" value="&lt;b&gt;Người ký&lt;/b&gt;" style="shape=umlActor;verticalLabelPosition=bottom;verticalAlign=top;html=1;outlineConnect=0;" vertex="1" parent="1">
          <mxGeometry y="401" width="50" height="80" as="geometry" />
        </mxCell>
        <mxCell id="qBwJLGhYPLfwIa4ArQ2N-14" style="edgeStyle=orthogonalEdgeStyle;rounded=0;orthogonalLoop=1;jettySize=auto;html=1;exitX=1;exitY=0.5;exitDx=0;exitDy=0;entryX=0;entryY=0.5;entryDx=0;entryDy=0;" edge="1" parent="1" source="qBwJLGhYPLfwIa4ArQ2N-9" target="qBwJLGhYPLfwIa4ArQ2N-13">
          <mxGeometry relative="1" as="geometry" />
        </mxCell>
        <mxCell id="qBwJLGhYPLfwIa4ArQ2N-9" value="&lt;font style=&quot;font-size: 23px;&quot;&gt;$$h=Hash(m)$$&lt;/font&gt;&lt;div&gt;&lt;font style=&quot;font-size: 23px;&quot;&gt;$$s=h^d \text{mod } n$$&lt;/font&gt;&lt;/div&gt;" style="rounded=1;whiteSpace=wrap;html=1;" vertex="1" parent="1">
          <mxGeometry x="-77.5" y="535" width="205" height="100" as="geometry" />
        </mxCell>
        <mxCell id="qBwJLGhYPLfwIa4ArQ2N-12" value="&lt;b&gt;Người ký&lt;/b&gt;" style="shape=umlActor;verticalLabelPosition=bottom;verticalAlign=top;html=1;outlineConnect=0;" vertex="1" parent="1">
          <mxGeometry x="320" y="400" width="50" height="80" as="geometry" />
        </mxCell>
        <mxCell id="qBwJLGhYPLfwIa4ArQ2N-13" value="&lt;font style=&quot;font-size: 23px;&quot;&gt;$$h=Hash(m)$$&lt;/font&gt;&lt;div&gt;&lt;font style=&quot;font-size: 23px;&quot;&gt;$$h&#39;=s^e \text{mod } n$$&lt;/font&gt;&lt;/div&gt;" style="rounded=1;whiteSpace=wrap;html=1;" vertex="1" parent="1">
          <mxGeometry x="230" y="535" width="205" height="100" as="geometry" />
        </mxCell>
        <mxCell id="qBwJLGhYPLfwIa4ArQ2N-15" value="&lt;span style=&quot;font-size: 23px; white-space: normal;&quot;&gt;&amp;nbsp;$$h&#39;\stackrel{?}{=} h$$&lt;/span&gt;&lt;br&gt;&lt;div&gt;&lt;span style=&quot;font-size: 23px; white-space: normal;&quot;&gt;&lt;br&gt;&lt;/span&gt;&lt;/div&gt;" style="text;html=1;align=center;verticalAlign=middle;resizable=0;points=[];autosize=1;strokeColor=none;fillColor=none;" vertex="1" parent="1">
          <mxGeometry x="160" y="635" width="260" height="70" as="geometry" />
        </mxCell>
        <mxCell id="qBwJLGhYPLfwIa4ArQ2N-16" value="&lt;span style=&quot;caret-color: rgb(0, 0, 0); color: rgb(0, 0, 0); font-family: Helvetica; font-size: 23px; font-style: normal; font-variant-caps: normal; font-weight: 400; letter-spacing: normal; orphans: auto; text-align: center; text-indent: 0px; text-transform: none; white-space: normal; widows: auto; word-spacing: 0px; -webkit-text-stroke-width: 0px; background-color: rgb(236, 236, 236); text-decoration: none; display: inline !important; float: none;&quot;&gt;So sánh&lt;/span&gt;" style="text;whiteSpace=wrap;html=1;" vertex="1" parent="1">
          <mxGeometry x="260" y="790" width="120" height="50" as="geometry" />
        </mxCell>
      </root>
    </mxGraphModel>
  </diagram>
</mxfile>
